<?xml version="1.0" encoding="UTF-8" standalone="no"?>
<!DOCTYPE svg PUBLIC "-//W3C//DTD SVG 1.1//EN" "http://www.w3.org/Graphics/SVG/1.1/DTD/svg11.dtd">
<svg width="100%" height="100%" viewBox="0 0 1321 540" version="1.1" xmlns="http://www.w3.org/2000/svg" xmlns:xlink="http://www.w3.org/1999/xlink" xml:space="preserve" xmlns:serif="http://www.serif.com/" style="fill-rule:evenodd;clip-rule:evenodd;stroke-linejoin:round;stroke-miterlimit:2;">
    <g transform="matrix(28.7537,0,0,28.7537,-16547.7,-29929.9)">
        <path d="M581.465,1057.6C581.465,1058.04 581.358,1058.41 581.143,1058.73C580.928,1059.04 580.611,1059.28 580.191,1059.44C579.771,1059.61 579.26,1059.69 578.659,1059.69C578.084,1059.69 577.592,1059.6 577.182,1059.42C576.772,1059.25 576.469,1059.03 576.274,1058.76C576.079,1058.5 575.981,1058.24 575.981,1057.97C575.981,1057.79 576.043,1057.64 576.168,1057.52C576.293,1057.39 576.452,1057.33 576.643,1057.33C576.811,1057.33 576.94,1057.37 577.03,1057.45C577.12,1057.54 577.205,1057.65 577.288,1057.8C577.452,1058.09 577.648,1058.3 577.876,1058.44C578.105,1058.58 578.416,1058.65 578.811,1058.65C579.131,1058.65 579.394,1058.58 579.599,1058.44C579.804,1058.29 579.907,1058.13 579.907,1057.95C579.907,1057.66 579.8,1057.46 579.587,1057.33C579.374,1057.2 579.024,1057.08 578.536,1056.96C577.985,1056.83 577.537,1056.68 577.191,1056.53C576.845,1056.38 576.569,1056.18 576.362,1055.94C576.155,1055.69 576.051,1055.39 576.051,1055.03C576.051,1054.71 576.147,1054.4 576.338,1054.12C576.53,1053.84 576.812,1053.61 577.185,1053.44C577.558,1053.27 578.008,1053.18 578.536,1053.18C578.95,1053.18 579.322,1053.23 579.652,1053.31C579.982,1053.4 580.257,1053.51 580.478,1053.66C580.699,1053.8 580.867,1053.96 580.982,1054.14C581.097,1054.31 581.155,1054.49 581.155,1054.65C581.155,1054.84 581.093,1054.99 580.97,1055.11C580.847,1055.22 580.672,1055.28 580.446,1055.28C580.282,1055.28 580.142,1055.23 580.027,1055.14C579.912,1055.05 579.78,1054.9 579.631,1054.72C579.51,1054.56 579.368,1054.44 579.204,1054.34C579.039,1054.25 578.817,1054.2 578.536,1054.2C578.246,1054.2 578.006,1054.26 577.815,1054.39C577.623,1054.51 577.528,1054.66 577.528,1054.85C577.528,1055.02 577.598,1055.15 577.739,1055.26C577.879,1055.37 578.069,1055.46 578.307,1055.53C578.545,1055.6 578.873,1055.68 579.291,1055.78C579.788,1055.9 580.193,1056.05 580.507,1056.22C580.822,1056.39 581.06,1056.58 581.222,1056.81C581.384,1057.04 581.465,1057.3 581.465,1057.6Z" style="fill:rgb(252,252,252);fill-rule:nonzero;"/>
        <path d="M584.272,1054.07L584.272,1054.26C584.553,1053.89 584.861,1053.62 585.195,1053.44C585.529,1053.27 585.913,1053.18 586.346,1053.18C586.768,1053.18 587.145,1053.27 587.477,1053.46C587.809,1053.64 588.057,1053.9 588.221,1054.24C588.327,1054.43 588.395,1054.64 588.426,1054.87C588.457,1055.1 588.473,1055.39 588.473,1055.74L588.473,1058.71C588.473,1059.03 588.4,1059.28 588.253,1059.44C588.107,1059.61 587.916,1059.69 587.682,1059.69C587.444,1059.69 587.25,1059.6 587.102,1059.43C586.954,1059.27 586.879,1059.03 586.879,1058.71L586.879,1056.05C586.879,1055.52 586.806,1055.12 586.66,1054.84C586.513,1054.56 586.221,1054.42 585.784,1054.42C585.498,1054.42 585.239,1054.5 585.004,1054.67C584.77,1054.84 584.598,1055.08 584.489,1055.37C584.411,1055.61 584.371,1056.06 584.371,1056.71L584.371,1058.71C584.371,1059.04 584.296,1059.28 584.146,1059.44C583.996,1059.61 583.801,1059.69 583.563,1059.69C583.332,1059.69 583.143,1059.6 582.995,1059.43C582.846,1059.27 582.772,1059.03 582.772,1058.71L582.772,1054.09C582.772,1053.79 582.838,1053.56 582.971,1053.41C583.104,1053.26 583.286,1053.18 583.516,1053.18C583.657,1053.18 583.784,1053.22 583.897,1053.28C584.01,1053.35 584.101,1053.45 584.169,1053.58C584.238,1053.71 584.272,1053.88 584.272,1054.07Z" style="fill:rgb(252,252,252);fill-rule:nonzero;"/>
        <path d="M595.803,1057.71C595.803,1057.9 595.744,1058.12 595.624,1058.35C595.505,1058.57 595.324,1058.79 595.079,1058.99C594.835,1059.2 594.528,1059.36 594.157,1059.49C593.786,1059.61 593.368,1059.67 592.903,1059.67C591.914,1059.67 591.143,1059.39 590.588,1058.81C590.034,1058.23 589.756,1057.46 589.756,1056.49C589.756,1055.84 589.883,1055.26 590.137,1054.75C590.391,1054.25 590.758,1053.86 591.239,1053.58C591.719,1053.31 592.293,1053.17 592.961,1053.17C593.375,1053.17 593.755,1053.23 594.101,1053.35C594.447,1053.47 594.74,1053.63 594.98,1053.82C595.22,1054.01 595.404,1054.22 595.531,1054.43C595.658,1054.65 595.721,1054.85 595.721,1055.04C595.721,1055.23 595.65,1055.39 595.507,1055.53C595.365,1055.66 595.192,1055.73 594.989,1055.73C594.856,1055.73 594.746,1055.69 594.658,1055.62C594.57,1055.56 594.471,1055.44 594.362,1055.29C594.166,1055 593.962,1054.77 593.749,1054.62C593.537,1054.48 593.266,1054.4 592.938,1054.4C592.465,1054.4 592.084,1054.59 591.795,1054.95C591.506,1055.32 591.362,1055.83 591.362,1056.47C591.362,1056.77 591.399,1057.05 591.473,1057.3C591.547,1057.55 591.655,1057.77 591.795,1057.94C591.936,1058.12 592.106,1058.26 592.305,1058.35C592.504,1058.44 592.723,1058.49 592.961,1058.49C593.282,1058.49 593.556,1058.41 593.785,1058.26C594.013,1058.11 594.215,1057.89 594.391,1057.58C594.489,1057.4 594.594,1057.26 594.707,1057.16C594.821,1057.06 594.959,1057.01 595.123,1057.01C595.319,1057.01 595.481,1057.08 595.61,1057.23C595.739,1057.38 595.803,1057.54 595.803,1057.71Z" style="fill:rgb(252,252,252);fill-rule:nonzero;"/>
        <path d="M597.069,1053.32L597.45,1053.32L597.45,1052.84C597.45,1052.34 597.513,1051.94 597.64,1051.65C597.767,1051.36 597.982,1051.14 598.285,1051.01C598.587,1050.87 599.002,1050.8 599.53,1050.8C600.463,1050.8 600.93,1051.03 600.93,1051.49C600.93,1051.64 600.881,1051.77 600.784,1051.87C600.686,1051.98 600.571,1052.03 600.438,1052.03C600.375,1052.03 600.268,1052.02 600.116,1051.99C599.963,1051.97 599.834,1051.96 599.729,1051.96C599.44,1051.96 599.254,1052.04 599.172,1052.21C599.09,1052.38 599.049,1052.63 599.049,1052.94L599.049,1053.32L599.442,1053.32C600.051,1053.32 600.356,1053.51 600.356,1053.87C600.356,1054.14 600.275,1054.3 600.113,1054.37C599.951,1054.44 599.727,1054.48 599.442,1054.48L599.049,1054.48L599.049,1058.71C599.049,1059.03 598.974,1059.27 598.824,1059.44C598.673,1059.6 598.479,1059.69 598.241,1059.69C598.014,1059.69 597.826,1059.6 597.675,1059.44C597.525,1059.27 597.45,1059.03 597.45,1058.71L597.45,1054.48L597.01,1054.48C596.772,1054.48 596.588,1054.42 596.459,1054.32C596.33,1054.21 596.266,1054.07 596.266,1053.9C596.266,1053.52 596.534,1053.32 597.069,1053.32Z" style="fill:rgb(252,252,252);fill-rule:nonzero;"/>
        <path d="M607.024,1056.43C607.024,1056.91 606.95,1057.35 606.801,1057.75C606.653,1058.15 606.438,1058.5 606.157,1058.79C605.875,1059.08 605.539,1059.3 605.149,1059.45C604.758,1059.61 604.319,1059.69 603.83,1059.69C603.346,1059.69 602.911,1059.61 602.524,1059.45C602.137,1059.3 601.802,1059.07 601.519,1058.78C601.236,1058.49 601.021,1058.15 600.874,1057.75C600.728,1057.35 600.655,1056.91 600.655,1056.43C600.655,1055.95 600.729,1055.51 600.877,1055.11C601.026,1054.7 601.239,1054.36 601.516,1054.07C601.793,1053.79 602.129,1053.57 602.524,1053.41C602.918,1053.26 603.354,1053.18 603.83,1053.18C604.315,1053.18 604.754,1053.26 605.149,1053.42C605.543,1053.57 605.881,1053.8 606.163,1054.09C606.444,1054.37 606.658,1054.72 606.804,1055.12C606.951,1055.52 607.024,1055.95 607.024,1056.43ZM605.418,1056.43C605.418,1055.78 605.275,1055.27 604.988,1054.91C604.701,1054.55 604.315,1054.37 603.83,1054.37C603.518,1054.37 603.243,1054.45 603.004,1054.61C602.766,1054.77 602.582,1055.01 602.454,1055.33C602.325,1055.64 602.26,1056.01 602.26,1056.43C602.26,1056.85 602.324,1057.22 602.451,1057.53C602.578,1057.84 602.759,1058.08 602.996,1058.25C603.232,1058.41 603.51,1058.5 603.83,1058.5C604.315,1058.5 604.701,1058.32 604.988,1057.95C605.275,1057.58 605.418,1057.08 605.418,1056.43Z" style="fill:rgb(252,252,252);fill-rule:nonzero;"/>
        <path d="M614.272,1056.43C614.272,1056.91 614.198,1057.35 614.049,1057.75C613.901,1058.15 613.686,1058.5 613.405,1058.79C613.123,1059.08 612.788,1059.3 612.397,1059.45C612.006,1059.61 611.567,1059.69 611.079,1059.69C610.594,1059.69 610.159,1059.61 609.772,1059.45C609.385,1059.3 609.05,1059.07 608.767,1058.78C608.484,1058.49 608.269,1058.15 608.122,1057.75C607.976,1057.35 607.903,1056.91 607.903,1056.43C607.903,1055.95 607.977,1055.51 608.125,1055.11C608.274,1054.7 608.487,1054.36 608.764,1054.07C609.041,1053.79 609.377,1053.57 609.772,1053.41C610.166,1053.26 610.602,1053.18 611.079,1053.18C611.563,1053.18 612.002,1053.26 612.397,1053.42C612.791,1053.57 613.129,1053.8 613.411,1054.09C613.692,1054.37 613.906,1054.72 614.052,1055.12C614.199,1055.52 614.272,1055.95 614.272,1056.43ZM612.666,1056.43C612.666,1055.78 612.523,1055.27 612.236,1054.91C611.949,1054.55 611.563,1054.37 611.079,1054.37C610.766,1054.37 610.491,1054.45 610.252,1054.61C610.014,1054.77 609.83,1055.01 609.702,1055.33C609.573,1055.64 609.508,1056.01 609.508,1056.43C609.508,1056.85 609.572,1057.22 609.699,1057.53C609.826,1057.84 610.007,1058.08 610.244,1058.25C610.48,1058.41 610.758,1058.5 611.079,1058.5C611.563,1058.5 611.949,1058.32 612.236,1057.95C612.523,1057.58 612.666,1057.08 612.666,1056.43Z" style="fill:rgb(252,252,252);fill-rule:nonzero;"/>
        <path d="M619.914,1058.77L619.914,1058.61C619.7,1058.86 619.488,1059.06 619.279,1059.21C619.07,1059.37 618.843,1059.49 618.599,1059.57C618.355,1059.65 618.088,1059.69 617.799,1059.69C617.416,1059.69 617.062,1059.61 616.736,1059.44C616.41,1059.28 616.127,1059.05 615.889,1058.75C615.651,1058.45 615.47,1058.1 615.347,1057.69C615.224,1057.28 615.163,1056.84 615.163,1056.37C615.163,1055.37 615.407,1054.59 615.895,1054.03C616.383,1053.47 617.026,1053.19 617.823,1053.19C618.284,1053.19 618.672,1053.27 618.989,1053.43C619.305,1053.59 619.614,1053.83 619.914,1054.16L619.914,1051.8C619.914,1051.47 619.98,1051.22 620.111,1051.06C620.242,1050.89 620.428,1050.8 620.67,1050.8C620.913,1050.8 621.099,1050.88 621.23,1051.04C621.361,1051.19 621.426,1051.42 621.426,1051.72L621.426,1058.77C621.426,1059.08 621.356,1059.31 621.215,1059.46C621.075,1059.61 620.893,1059.69 620.67,1059.69C620.452,1059.69 620.271,1059.61 620.128,1059.45C619.986,1059.29 619.914,1059.07 619.914,1058.77ZM616.768,1056.42C616.768,1056.86 616.835,1057.23 616.97,1057.53C617.105,1057.84 617.289,1058.07 617.524,1058.22C617.758,1058.37 618.014,1058.45 618.291,1058.45C618.573,1058.45 618.829,1058.38 619.062,1058.23C619.294,1058.08 619.48,1057.86 619.619,1057.56C619.757,1057.25 619.827,1056.88 619.827,1056.42C619.827,1056 619.757,1055.63 619.619,1055.32C619.48,1055.02 619.292,1054.78 619.056,1054.62C618.82,1054.46 618.561,1054.38 618.28,1054.38C617.987,1054.38 617.725,1054.46 617.495,1054.63C617.264,1054.79 617.085,1055.03 616.958,1055.34C616.831,1055.65 616.768,1056.01 616.768,1056.42Z" style="fill:rgb(252,252,252);fill-rule:nonzero;"/>
    </g>
    <g transform="matrix(1.04518,0,0,1.04518,-751.812,-690.237)">
        <circle cx="1443.09" cy="792.688" r="129.264" style="fill:rgb(252,252,252);"/>
    </g>
    <g transform="matrix(1,0,0,1,-551.194,-524.153)">
        <path d="M695.219,794.897C692.271,795.091 689.296,795.189 686.298,795.189C611.732,795.189 551.194,734.466 551.194,659.671C551.194,584.876 611.732,524.153 686.298,524.153C688.431,524.153 690.552,524.202 692.656,524.301L1007.75,524.301C1009.41,524.24 1011.09,524.209 1012.77,524.209C1014.46,524.209 1016.14,524.24 1017.8,524.301L1018.37,524.301L1018.37,524.323C1090.34,527.26 1147.88,586.689 1147.88,659.466C1147.88,732.242 1090.34,791.671 1018.37,794.608L1018.37,794.897L695.219,794.897ZM1024.86,548.855C1028.9,547.13 1033.47,546.156 1038.31,546.154C1054.76,546.15 1068.13,557.403 1068.13,571.268C1068.13,571.607 1068.12,571.944 1068.11,572.279L1068.14,661.082L1068.18,661.082L1068.13,748.967C1068.25,749.981 1068.32,751.013 1068.32,752.059C1068.31,765.925 1057.18,777.176 1043.49,777.168C1029.79,777.161 1018.68,765.897 1018.69,752.032C1018.69,751.66 1018.7,751.29 1018.71,750.923L1018.75,678.506C1005.09,668.885 995.355,644.187 995.355,615.269C995.355,582.203 1008.08,554.654 1024.86,548.855ZM861.831,546.563C924.69,546.563 975.724,597.597 975.724,660.456C975.724,723.316 924.69,774.349 861.831,774.349C798.972,774.349 747.938,723.316 747.938,660.456C747.938,597.597 798.972,546.563 861.831,546.563ZM656.883,667.193C648.216,663.599 642.052,655.175 641.756,645.288L641.654,645.288L641.646,614.554L641.721,614.554L641.754,555.525L641.856,555.525C642.248,550.733 646.268,546.961 651.16,546.964C656.309,546.967 660.488,551.15 660.485,556.299C660.484,556.608 660.469,556.914 660.439,557.216L660.407,614.549L660.491,614.549C660.779,617.306 663.159,619.459 666.049,619.459C668.689,619.458 670.902,617.661 671.484,615.25L671.518,555.77L671.62,555.77C672.012,550.977 676.032,547.206 680.924,547.209C686.073,547.212 690.251,551.394 690.249,556.544C690.248,556.853 690.233,557.159 690.203,557.461L690.171,614.894C690.533,617.573 692.877,619.642 695.71,619.642C698.373,619.641 700.603,617.812 701.16,615.367L701.194,555.991L701.296,555.991C701.687,551.198 705.707,547.427 710.6,547.429C715.749,547.432 719.927,551.615 719.924,556.764C719.924,557.074 719.909,557.38 719.879,557.682L719.847,614.535L719.913,614.535L719.921,644.906C719.927,645.138 719.931,645.373 719.931,645.608C719.933,655.335 714.231,663.747 705.973,667.708L705.929,745.928C706.051,746.935 706.113,747.96 706.113,749C706.105,762.775 695.054,773.952 681.449,773.944C667.844,773.936 656.805,762.747 656.813,748.972C656.813,748.603 656.821,748.236 656.837,747.871L656.883,667.193Z" style="fill:rgb(252,252,252);"/>
    </g>
</svg>
