<?xml version="1.0" encoding="UTF-8" standalone="no"?>
<!DOCTYPE svg PUBLIC "-//W3C//DTD SVG 1.1//EN" "http://www.w3.org/Graphics/SVG/1.1/DTD/svg11.dtd">
<svg width="100%" height="100%" viewBox="0 0 950 699" version="1.1" xmlns="http://www.w3.org/2000/svg" xmlns:xlink="http://www.w3.org/1999/xlink" xml:space="preserve" style="fill-rule:evenodd;clip-rule:evenodd;stroke-linejoin:round;stroke-miterlimit:2;" class="legumes">
    <g id="vegetables" class="vegetables" transform="matrix(0.1,0,0,-0.1,0,699)">
        <g class="vegetables" id="Poireau" transform="matrix(1,0,0,1,20,-60)">
            <path d="M2575,6853C2228,6828 1831,6756 1479,6653C1133,6553 1049,6530 898,6500C740,6467 444,6420 396,6420C380,6420 359,6413 350,6405C340,6396 315,6386 294,6383C231,6373 228,6366 261,6297C277,6263 286,6233 282,6229C278,6226 235,6213 186,6201C76,6174 40,6156 40,6129C40,6118 55,6081 74,6047C92,6013 116,5960 125,5930C143,5874 156,5850 170,5850C174,5850 253,5896 346,5951C594,6100 878,6231 1180,6337C1295,6376 1301,6381 1223,6364C1202,6360 1199,6361 1210,6369C1220,6376 1222,6382 1215,6389C1208,6396 1152,6388 1043,6365C741,6300 664,6290 472,6291C285,6293 286,6293 510,6324C627,6341 957,6407 930,6409C922,6410 825,6394 715,6375C479,6333 270,6318 270,6343C270,6357 340,6380 388,6380C403,6380 403,6382 390,6390C379,6397 386,6400 415,6400C483,6400 686,6430 835,6460C973,6489 1108,6525 1410,6613C1642,6680 1886,6733 1935,6726C1957,6723 2036,6719 2111,6718C2214,6717 2247,6713 2243,6704C2240,6697 2248,6690 2262,6688C2275,6686 2243,6675 2188,6662C2117,6645 2090,6634 2090,6623C2090,6611 2100,6609 2153,6614L2215,6621L2122,6589C2040,6561 2007,6540 2022,6525C2024,6522 2076,6531 2136,6545C2196,6559 2256,6570 2269,6570C2293,6570 2293,6569 2275,6556C2260,6545 2258,6539 2268,6528C2278,6516 2267,6511 2204,6496C2135,6479 2015,6444 1965,6425L1945,6417L1965,6433C2039,6491 1795,6418 1605,6325C1453,6251 1302,6149 1143,6011C1079,5957 1073,5946 1089,5921C1097,5909 1105,5911 1137,5935C1162,5954 1150,5938 1100,5884C1058,5841 999,5766 967,5719C907,5629 811,5436 789,5363C782,5339 776,5320 775,5320C774,5320 759,5325 742,5331L711,5342L731,5393C787,5535 876,5675 1019,5842C1060,5890 1050,5882 978,5810C875,5706 795,5592 728,5454C705,5405 684,5363 683,5361C680,5355 590,5392 590,5400C590,5404 612,5444 640,5489C697,5585 766,5673 900,5820C977,5905 985,5917 943,5882C847,5803 699,5637 632,5534C595,5478 559,5424 552,5414C546,5403 553,5422 569,5455C645,5613 816,5837 981,5995C1186,6192 1415,6332 1745,6465C1878,6519 1895,6529 1882,6542C1867,6557 1642,6478 1505,6411C1246,6284 955,6061 779,5853C666,5722 655,5710 701,5775C767,5869 865,5983 926,6039C1092,6191 1447,6413 1641,6488C1708,6514 1887,6567 2019,6600C2093,6619 2057,6622 1958,6605C1536,6534 1092,6268 745,5880C711,5842 702,5835 724,5863C746,5890 760,5917 757,5928C754,5941 711,5903 591,5780C503,5689 430,5611 431,5605C431,5588 490,5548 505,5554C514,5557 517,5554 513,5544C506,5526 496,5526 480,5545C473,5554 441,5577 409,5597C376,5617 350,5634 350,5635C350,5637 420,5698 506,5771C719,5954 736,5970 727,5970C722,5970 704,5960 687,5948C665,5933 659,5931 669,5943C696,5977 666,5959 589,5894C545,5858 512,5825 515,5820C517,5816 510,5804 497,5794L475,5775L494,5798C505,5810 509,5820 503,5820C490,5820 458,5785 465,5778C468,5775 442,5749 408,5719C373,5690 358,5680 374,5698C410,5736 398,5741 359,5704C344,5690 327,5681 321,5684C308,5692 514,5863 778,6063C785,6068 793,6071 795,6068C798,6065 773,6042 740,6015C706,5989 681,5966 684,5963C686,5961 723,5986 765,6019C806,6052 904,6119 981,6166C1077,6226 1119,6257 1116,6267C1112,6276 1122,6286 1143,6295C1206,6323 1151,6309 1079,6280C920,6214 741,6104 495,5920C332,5798 250,5720 250,5688C250,5660 276,5634 342,5596C386,5570 470,5489 470,5473C470,5468 458,5447 445,5425C407,5364 411,5358 478,5365C528,5370 551,5366 669,5326C743,5301 804,5281 805,5283C806,5284 817,5314 830,5350C966,5735 1318,6097 1775,6321C2074,6467 2315,6508 2605,6460C2721,6442 2732,6437 2915,6346C3020,6294 3135,6233 3172,6211C3279,6145 3343,6159 3417,6262C3485,6356 3507,6478 3475,6570C3456,6623 3398,6703 3368,6717C3336,6731 3191,6775 3095,6799C2938,6838 2701,6862 2575,6853ZM2895,6801C2988,6781 3122,6741 3185,6714L3222,6699L3186,6660C3167,6638 3142,6603 3131,6581L3111,6542L3034,6572C2991,6588 2924,6610 2885,6620C2799,6642 2582,6654 2490,6643C2430,6635 2438,6634 2610,6622C2712,6615 2833,6602 2880,6594C2982,6576 3094,6525 3098,6495C3103,6452 3087,6449 3014,6480C2948,6507 2805,6538 2793,6527C2791,6524 2815,6515 2847,6506C2996,6464 3037,6449 3065,6426C3082,6413 3093,6399 3089,6396C3086,6393 3044,6408 2994,6429C2888,6474 2839,6487 2745,6494L2675,6500L2754,6481C2859,6455 2940,6426 3033,6378C3150,6317 3131,6302 3008,6357C2790,6453 2579,6508 2400,6514C2292,6517 2258,6530 2303,6551C2375,6584 2260,6590 2135,6560C2091,6550 2054,6543 2052,6544C2043,6554 2203,6601 2277,6610C2325,6616 2366,6623 2369,6625C2371,6628 2360,6634 2344,6640C2323,6648 2293,6648 2236,6641C2109,6624 2116,6629 2265,6665L2405,6698L2331,6699C2266,6700 2258,6702 2275,6714C2291,6725 2281,6728 2198,6734C2145,6738 2067,6738 2024,6735C1840,6721 2022,6759 2405,6815C2540,6834 2774,6828 2895,6801ZM3370,6681C3384,6671 3406,6643 3420,6619C3442,6580 3445,6564 3444,6480C3444,6350 3415,6277 3351,6243C3296,6214 3232,6213 3198,6240C3184,6250 3163,6283 3150,6312C3131,6356 3128,6377 3132,6445C3137,6536 3165,6603 3222,6657C3279,6712 3317,6718 3370,6681ZM1799,6506C1797,6504 1755,6486 1705,6465C1470,6368 1251,6243 1090,6113C914,5971 708,5729 589,5524C555,5467 521,5420 514,5420C495,5420 528,5484 607,5605C827,5938 1164,6234 1517,6402C1636,6459 1822,6528 1799,6506ZM1850,6403C1543,6263 1477,6224 1261,6051C1177,5984 1105,5930 1100,5930C1078,5930 1093,5950 1153,6001C1359,6179 1529,6286 1743,6371C1859,6417 1924,6436 1850,6403ZM879,6246C877,6244 835,6226 787,6206C665,6156 581,6113 399,6009C314,5960 228,5917 209,5914C167,5907 152,5925 124,6011C115,6041 98,6075 87,6087C60,6118 76,6135 154,6159C258,6191 278,6193 296,6176C328,6143 543,6164 755,6219C868,6249 886,6253 879,6246Z" style="fill:current;fill-rule:nonzero;"/>
            <path d="M2536,6799C2394,6787 2397,6782 2545,6781C2617,6780 2704,6775 2740,6769C2818,6757 2953,6713 3042,6671C3078,6654 3111,6640 3117,6640C3127,6640 3160,6672 3160,6682C3160,6692 3021,6746 2940,6769C2867,6789 2710,6811 2660,6809C2646,6808 2591,6804 2536,6799Z" style="fill:current;fill-rule:nonzero;"/>
            <path d="M3226,6616C3182,6570 3155,6480 3184,6480C3192,6480 3201,6495 3204,6515C3208,6534 3222,6563 3236,6580C3306,6663 3403,6564 3371,6442C3347,6353 3278,6317 3272,6390C3267,6451 3261,6458 3239,6431C3212,6397 3214,6356 3246,6331C3280,6305 3300,6305 3334,6331C3418,6397 3426,6560 3349,6625C3306,6661 3265,6658 3226,6616Z" style="fill:current;fill-rule:nonzero;"/>
        </g>
        <g class="vegetables" id="Champignons" transform="matrix(1,0,0,1,70,90)">
            <path d="M7342,6769C7199,6755 7098,6716 6955,6620C6866,6560 6801,6490 6767,6419C6689,6254 6662,6095 6694,5985C6717,5910 6800,5822 6874,5797C6959,5768 7050,5780 7102,5827C7119,5842 7120,5841 7120,5818C7120,5804 7131,5738 7145,5670C7159,5602 7170,5546 7170,5545C7170,5543 7186,5539 7206,5535C7226,5532 7262,5519 7286,5508C7327,5488 7330,5487 7348,5503C7358,5512 7376,5520 7388,5520C7399,5520 7411,5524 7414,5529C7417,5533 7443,5540 7472,5542C7518,5547 7529,5553 7560,5587C7586,5618 7605,5629 7635,5633C7662,5637 7683,5649 7700,5668C7714,5684 7743,5703 7765,5710C7822,5728 7880,5761 7880,5777C7880,5784 7840,5858 7790,5941C7741,6023 7700,6093 7700,6096C7700,6098 7720,6100 7744,6100C7787,6100 7787,6100 7794,6058C7803,6006 7860,5901 7904,5857C7922,5839 7961,5813 7992,5800L8046,5776L8042,5723C8037,5660 8066,5602 8132,5545C8222,5468 8325,5433 8492,5423C8629,5415 8647,5423 8700,5506C8730,5554 8746,5570 8763,5570C8849,5570 8993,5635 9056,5702C9112,5762 9176,5893 9186,5966C9194,6037 9168,6184 9133,6259C9100,6330 9003,6426 8889,6502C8741,6601 8603,6640 8402,6640C8210,6639 8096,6617 8009,6561L7964,6533L7940,6573C7916,6610 7825,6687 7769,6716C7754,6723 7703,6741 7655,6755C7562,6782 7499,6784 7342,6769ZM7615,6725C7764,6693 7889,6609 7933,6511C7964,6440 7962,6340 7926,6270C7882,6182 7818,6129 7758,6131C7737,6131 7738,6133 7765,6142C7809,6157 7829,6178 7840,6221C7865,6314 7821,6393 7736,6405C7648,6419 7590,6373 7590,6289C7590,6227 7609,6181 7688,6045C7823,5816 7840,5785 7837,5775C7835,5770 7821,5761 7805,5755C7781,5747 7775,5748 7762,5768C7742,5798 7733,5796 7738,5761C7741,5736 7738,5731 7709,5721C7691,5715 7676,5711 7674,5712C7673,5714 7646,5760 7615,5815C7539,5947 7498,6012 7493,6007C7491,6004 7512,5946 7540,5877C7597,5733 7610,5685 7589,5692C7581,5695 7570,5714 7563,5736C7552,5774 7552,5774 7551,5700C7550,5618 7536,5588 7514,5618C7502,5633 7501,5632 7500,5608C7500,5577 7497,5574 7449,5565C7415,5559 7411,5560 7402,5587L7392,5615L7391,5579C7390,5545 7388,5542 7353,5537C7333,5533 7315,5532 7314,5533C7313,5534 7305,5585 7296,5645C7268,5839 7208,6110 7186,6143C7150,6195 7116,6214 7047,6218C6995,6221 6980,6218 6950,6198C6898,6163 6878,6117 6883,6046L6887,5986L6843,6034C6794,6088 6774,6145 6764,6256C6758,6326 6759,6334 6788,6392C6867,6551 6988,6633 7262,6714C7361,6744 7506,6748 7615,6725ZM8670,6575C8788,6538 8942,6440 9016,6356C9116,6243 9178,6056 9151,5948C9104,5763 9030,5679 8869,5629C8793,5605 8749,5604 8755,5625C8771,5676 8770,5674 8785,5654C8797,5637 8798,5638 8797,5670C8795,5699 8799,5705 8815,5706C8826,5706 8846,5697 8859,5686L8883,5665L8871,5687C8857,5715 8857,5727 8872,5712C8896,5688 8900,5701 8878,5730L8856,5760L8885,5820C8907,5867 8919,5880 8936,5880C8948,5880 8967,5883 8977,5887C8991,5893 8988,5896 8961,5900C8923,5906 8905,5930 8939,5930C8964,5930 8967,5950 8943,5951C8933,5951 8941,5957 8960,5962C8992,5972 8993,5973 8972,5979C8959,5982 8949,5989 8950,5994C8951,5999 8946,6006 8939,6011C8929,6017 8929,6022 8940,6037C8948,6047 8951,6052 8946,6048C8936,6040 8918,6056 8901,6087C8892,6106 8893,6111 8910,6120C8921,6126 8930,6136 8930,6142C8930,6151 8927,6151 8918,6142C8903,6127 8886,6126 8895,6140C8898,6146 8894,6150 8885,6150C8874,6150 8870,6155 8873,6164C8877,6174 8874,6177 8864,6173C8854,6169 8852,6173 8856,6186C8861,6201 8860,6202 8851,6194C8832,6177 8657,6271 8649,6302C8644,6317 8642,6319 8641,6308C8640,6285 8616,6295 8602,6323C8593,6342 8591,6343 8591,6326C8590,6312 8585,6309 8568,6314C8555,6318 8517,6324 8483,6327C8416,6333 8405,6340 8397,6380C8394,6398 8392,6395 8391,6368C8390,6323 8376,6319 8362,6358L8352,6385L8351,6355C8350,6332 8347,6328 8340,6340C8331,6353 8330,6353 8330,6340C8330,6328 8328,6328 8321,6338C8314,6349 8312,6349 8307,6337C8302,6324 8218,6290 8191,6290C8185,6290 8174,6302 8166,6318C8148,6350 8146,6343 8160,6304C8169,6282 8168,6279 8157,6288C8147,6296 8144,6294 8143,6279C8142,6267 8145,6262 8153,6267C8160,6271 8149,6256 8130,6233C8089,6185 8051,6174 8008,6196C7990,6205 7981,6207 7985,6200C7989,6193 8009,6180 8030,6171C8061,6157 8066,6151 8059,6133C8051,6110 8018,6095 7998,6105C7991,6109 7994,6104 8004,6096C8024,6080 8024,6080 8004,6079C7987,6079 7987,6078 8008,6068C8020,6062 8030,6052 8030,6045C8030,6038 8020,6028 8008,6022L7985,6011L8008,6011C8023,6010 8030,6004 8030,5990C8030,5979 8034,5970 8039,5970C8044,5970 8058,5951 8069,5927C8087,5890 8088,5878 8079,5852C8073,5834 8066,5820 8064,5820C8052,5820 7960,5872 7922,5900C7876,5933 7838,6001 7826,6071C7820,6105 7822,6109 7853,6128C7936,6176 7983,6282 7984,6419L7985,6513L8035,6541C8128,6593 8174,6600 8405,6596C8570,6593 8627,6589 8670,6575ZM7737,6359C7807,6333 7836,6269 7804,6209C7789,6180 7785,6178 7782,6195C7768,6278 7705,6320 7633,6296C7607,6288 7604,6299 7621,6331C7639,6366 7688,6378 7737,6359ZM8545,6286C8797,6201 8868,6137 8878,5984C8880,5944 8877,5898 8871,5878C8857,5836 8801,5746 8794,5753C8791,5756 8800,5797 8815,5845L8841,5931L8820,5974C8772,6074 8687,6144 8557,6192C8460,6227 8391,6227 8296,6190C8210,6157 8185,6129 8141,6017C8107,5930 8101,5921 8089,5936C8068,5962 8073,6087 8098,6143C8119,6190 8162,6226 8257,6274C8365,6328 8412,6330 8545,6286ZM6771,6081C6797,6019 6881,5939 6936,5923C6978,5910 7110,5913 7131,5926C7138,5930 7135,5918 7124,5899C7096,5851 7049,5830 6967,5830C6888,5830 6838,5851 6795,5902C6740,5967 6713,6079 6726,6190L6734,6255L6741,6194C6745,6160 6758,6109 6771,6081ZM8496,6189C8614,6153 8694,6105 8750,6036C8810,5963 8811,5949 8773,5815L8746,5720L8708,5784C8681,5830 8655,5858 8615,5885C8585,5905 8560,5923 8560,5925C8560,5927 8565,5941 8570,5957L8580,5985L8560,5958C8541,5934 8536,5932 8510,5942C8475,5954 8475,5954 8495,6010C8508,6047 8508,6051 8495,6040C8487,6034 8478,6020 8475,6009C8471,5998 8465,5992 8460,5995C8455,5998 8449,5996 8445,5990C8432,5969 8418,5981 8423,6007C8428,6032 8427,6033 8415,6016C8407,6006 8397,6001 8392,6004C8386,6007 8380,6003 8376,5995C8373,5987 8366,5980 8361,5980C8355,5980 8353,5988 8357,5998C8363,6013 8361,6013 8342,5996C8320,5977 8320,5977 8319,6001L8319,6025L8308,6002C8301,5988 8282,5976 8256,5969C8233,5963 8200,5950 8183,5940C8141,5915 8141,5924 8181,6029C8215,6120 8235,6139 8324,6170C8355,6180 8388,6193 8397,6199C8421,6213 8418,6213 8496,6189ZM7120,6155C7159,6135 7158,6130 7117,6137C7027,6151 6962,6053 7005,5970C7020,5941 7020,5940 7000,5940C6988,5940 6967,5952 6953,5966C6930,5989 6928,5997 6933,6040C6936,6067 6947,6101 6956,6115C6990,6167 7063,6185 7120,6155ZM7159,6083C7184,6061 7210,5945 7238,5729C7252,5612 7253,5581 7243,5572C7213,5543 7204,5559 7191,5657C7184,5711 7170,5781 7160,5815C7149,5848 7142,5891 7143,5910C7145,5944 7144,5944 7110,5942C7061,5938 7039,5958 7033,6012C7029,6049 7031,6061 7049,6079C7075,6105 7130,6107 7159,6083ZM8405,5944C8495,5921 8603,5865 8640,5823C8658,5803 8686,5757 8703,5722C8731,5662 8732,5656 8719,5618C8700,5559 8654,5501 8615,5484C8538,5452 8347,5476 8236,5531C8144,5578 8072,5681 8085,5749C8103,5846 8151,5903 8247,5940C8306,5964 8330,5964 8405,5944Z" style="fill:current;fill-rule:nonzero;"/>
        </g>
        <g class="vegetables" id="Oignon" transform="matrix(1,0,0,1,1930,310)">
            <path d="M3907,6652C3897,6642 3890,6629 3890,6623C3890,6617 3878,6605 3864,6595C3813,6562 3799,6485 3821,6365C3829,6321 3829,6305 3819,6300C3810,6294 3811,6286 3824,6269C3863,6213 3834,6089 3763,6010C3685,5923 3589,5883 3604,5945C3607,5957 3604,5975 3597,5984C3585,6000 3581,5994 3556,5931C3530,5865 3525,5858 3467,5823C3283,5712 3169,5595 3116,5460C3106,5435 3095,5379 3093,5334C3075,5067 3214,4847 3440,4780C3507,4760 3662,4740 3750,4740C3777,4740 3800,4736 3800,4730C3800,4725 3810,4720 3822,4720C3842,4720 3842,4719 3827,4702C3810,4683 3804,4660 3817,4660C3821,4660 3839,4674 3857,4692C3882,4716 3893,4721 3901,4713C3915,4699 3965,4707 3997,4728C4010,4736 4026,4740 4032,4737C4039,4735 4050,4732 4055,4730C4061,4729 4071,4724 4078,4718C4086,4711 4090,4711 4090,4720C4090,4729 4094,4729 4107,4719C4117,4711 4125,4709 4127,4715C4129,4721 4151,4724 4178,4722C4204,4720 4221,4723 4215,4727C4189,4748 4205,4757 4278,4763C4446,4776 4618,4842 4703,4925C4794,5016 4854,5180 4854,5345C4855,5452 4839,5518 4794,5596C4761,5652 4660,5746 4574,5802C4507,5845 4450,5903 4450,5928C4450,5955 4429,5948 4413,5915L4394,5880L4298,5945C4161,6038 4125,6077 4098,6161C4075,6233 4075,6233 4107,6360C4112,6382 4111,6383 4098,6372C4084,6361 4084,6365 4091,6402C4103,6463 4102,6608 4090,6615C4071,6627 4042,6610 4030,6580C4015,6543 4000,6541 4000,6575C4000,6623 3965,6670 3931,6670C3927,6670 3916,6662 3907,6652ZM3970,6564C3975,6543 3980,6471 3980,6406L3980,6286L3950,6315C3916,6348 3914,6344 3935,6276C3943,6249 3950,6211 3949,6191L3948,6155L3939,6196C3934,6218 3916,6252 3900,6271C3871,6304 3870,6304 3880,6278C3890,6247 3880,6241 3860,6265C3840,6289 3842,6495 3862,6540L3878,6575L3879,6509C3880,6416 3891,6320 3901,6320C3905,6320 3908,6385 3907,6465C3905,6585 3908,6612 3920,6620C3941,6633 3959,6612 3970,6564ZM4064,6457C4064,6390 4060,6326 4055,6315C4050,6304 4046,6280 4046,6262L4046,6229L4019,6257C3993,6283 3992,6289 4000,6330C4005,6355 4009,6396 4010,6422C4010,6461 4050,6580 4062,6580C4064,6580 4065,6525 4064,6457ZM4069,6137C4085,6103 4112,6056 4129,6032C4166,5981 4261,5909 4348,5867C4405,5838 4425,5820 4400,5820C4394,5820 4399,5807 4411,5790C4429,5767 4431,5758 4421,5747C4411,5734 4398,5738 4333,5774C4241,5823 4173,5882 4130,5950C4101,5995 4070,6016 4070,5990C4070,5966 4115,5894 4158,5847C4206,5796 4355,5680 4373,5680C4378,5680 4388,5687 4395,5696C4405,5711 4408,5709 4414,5679C4422,5636 4405,5619 4346,5613L4300,5607L4300,5525C4300,5464 4306,5425 4325,5370C4357,5276 4358,5256 4328,5266C4315,5269 4288,5281 4268,5291C4217,5317 4212,5315 4208,5273C4205,5242 4200,5235 4173,5226C4123,5209 4116,5197 4135,5161C4162,5108 4165,5042 4142,4975C4131,4942 4123,4913 4126,4911C4128,4909 4142,4933 4156,4965C4180,5016 4182,5030 4176,5089C4163,5212 4161,5205 4198,5208C4227,5211 4230,5214 4230,5245L4230,5279L4292,5257C4354,5235 4355,5235 4366,5185L4378,5135L4379,5203C4380,5256 4372,5294 4345,5376C4315,5465 4311,5489 4316,5535C4322,5581 4326,5590 4342,5590C4374,5590 4431,5622 4440,5644C4444,5656 4443,5675 4437,5689C4427,5709 4429,5715 4448,5731C4467,5746 4469,5753 4461,5769C4455,5780 4450,5798 4450,5809C4450,5826 4461,5821 4528,5774C4689,5659 4765,5557 4789,5426C4805,5339 4803,5273 4781,5188C4739,5023 4667,4936 4516,4864C4404,4811 4374,4807 4456,4856C4702,5003 4786,5268 4667,5522C4630,5601 4606,5625 4639,5550C4671,5477 4694,5387 4687,5368C4684,5361 4681,5365 4681,5377C4678,5445 4566,5660 4533,5660C4513,5660 4517,5596 4539,5569C4549,5556 4569,5523 4582,5495C4672,5316 4666,5178 4565,5040C4530,4992 4522,4970 4540,4970C4551,4970 4571,4988 4619,5045C4651,5084 4652,5084 4634,5051C4598,4986 4494,4904 4376,4845C4235,4775 4179,4762 4000,4757C3827,4752 3768,4765 3615,4840C3446,4922 3361,5019 3325,5171C3301,5274 3305,5345 3346,5505C3348,5516 3341,5508 3330,5488C3319,5468 3303,5423 3295,5388C3233,5125 3386,4891 3690,4785L3765,4759L3687,4765C3589,4772 3477,4801 3408,4836C3259,4911 3140,5114 3140,5292C3140,5441 3274,5655 3433,5760C3467,5782 3514,5825 3537,5855L3578,5909L3604,5889L3631,5868L3604,5833C3590,5814 3581,5796 3585,5792C3592,5785 3614,5809 3636,5846C3645,5862 3649,5862 3678,5849C3700,5840 3708,5830 3704,5820C3696,5798 3696,5799 3705,5757C3711,5725 3709,5715 3691,5696C3671,5675 3671,5672 3685,5660C3694,5653 3717,5644 3738,5641C3773,5635 3774,5633 3775,5592C3776,5569 3774,5550 3771,5550C3767,5550 3757,5543 3747,5536C3730,5522 3729,5520 3745,5496C3765,5466 3762,5460 3705,5419C3680,5401 3660,5384 3660,5380C3660,5376 3671,5368 3685,5362C3714,5349 3716,5334 3693,5308C3680,5294 3679,5285 3688,5267C3694,5255 3701,5212 3704,5171C3710,5097 3737,5020 3761,5005C3770,4999 3771,5002 3766,5016C3733,5096 3720,5151 3720,5205C3720,5238 3715,5271 3710,5276C3702,5284 3704,5291 3715,5300C3738,5319 3734,5367 3709,5375C3690,5381 3692,5385 3730,5417C3767,5449 3771,5456 3766,5486C3761,5511 3764,5521 3779,5532C3793,5542 3798,5557 3798,5598L3798,5650L3759,5650C3719,5650 3697,5671 3717,5691C3722,5696 3724,5723 3720,5750C3716,5777 3717,5805 3722,5812C3734,5832 3732,5850 3717,5850C3709,5850 3696,5858 3686,5869C3670,5886 3672,5888 3710,5915C3807,5982 3879,6095 3880,6180L3881,6225L3899,6203C3909,6191 3921,6165 3924,6145C3930,6116 3926,6102 3899,6062L3867,6015L3913,6059C3967,6110 3985,6155 3976,6212L3970,6251L4005,6225C4025,6209 4051,6173 4069,6137Z" style="fill:current;fill-rule:nonzero;"/>
            <path d="M3901,5698C3848,5535 3835,5452 3835,5270C3835,5127 3838,5094 3858,5025C3882,4940 3944,4807 3968,4787C3977,4780 3974,4793 3960,4820C3845,5046 3828,5360 3915,5689C3929,5741 3938,5785 3936,5787C3934,5789 3918,5749 3901,5698Z" style="fill:current;fill-rule:nonzero;"/>
            <path d="M3421,5740C3358,5690 3267,5581 3233,5515C3201,5454 3180,5378 3180,5327C3180,5263 3201,5288 3232,5388C3266,5497 3322,5577 3422,5660C3480,5707 3489,5720 3490,5748C3490,5765 3486,5780 3481,5780C3476,5780 3449,5762 3421,5740Z" style="fill:current;fill-rule:nonzero;"/>
            <path d="M3516,5460C3501,5426 3484,5370 3478,5334C3443,5127 3591,4881 3808,4784C3892,4746 3902,4757 3822,4801C3668,4886 3560,5022 3524,5176C3505,5259 3509,5403 3533,5470C3557,5535 3547,5530 3516,5460Z" style="fill:current;fill-rule:nonzero;"/>
        </g>
        <g class="vegetables" id="Petits-pois" serif:id="Petits pois" transform="matrix(1,0,0,1,-4730,-2080)">
            <path d="M6517,5737C6496,5730 6467,5714 6454,5701C6433,5681 6429,5669 6432,5636C6435,5613 6440,5588 6444,5579C6450,5565 6439,5562 6363,5557C6199,5545 6040,5482 5875,5364C5773,5291 5699,5255 5545,5205C5276,5117 5195,5104 5005,5124C4951,5130 4911,5129 4883,5121C4833,5107 4826,5090 4870,5090C4897,5090 4907,5080 4965,4992C5042,4875 5096,4817 5160,4785C5286,4721 5554,4711 5720,4765C5900,4823 6084,4940 6315,5144C6438,5252 6638,5400 6663,5400C6667,5400 6670,5389 6670,5377C6670,5364 6679,5345 6690,5335C6716,5311 6715,5290 6685,5246C6671,5226 6660,5207 6660,5205C6660,5192 6700,5202 6724,5221C6763,5251 6777,5286 6783,5363C6789,5439 6796,5451 6844,5474C6911,5505 7015,5484 7022,5438C7026,5411 7048,5404 7074,5423C7091,5436 7091,5438 7076,5468C7034,5550 6967,5576 6864,5553C6788,5536 6753,5541 6739,5574C6723,5608 6752,5664 6795,5684C6813,5693 6833,5700 6839,5700C6845,5700 6850,5704 6850,5709C6850,5723 6767,5734 6718,5727C6658,5719 6611,5669 6602,5604L6595,5555L6567,5582C6545,5604 6540,5618 6540,5655C6540,5680 6547,5712 6556,5725C6574,5753 6571,5754 6517,5737ZM6730,5680C6705,5655 6703,5585 6726,5552C6755,5510 6775,5506 6869,5525C6952,5542 6957,5542 6993,5525C7014,5515 7037,5495 7045,5479C7067,5437 7063,5435 7025,5469C6982,5507 6954,5514 6883,5507C6799,5498 6776,5471 6761,5364C6751,5297 6736,5262 6733,5301C6732,5313 6723,5331 6714,5341C6679,5380 6706,5462 6748,5445C6755,5443 6758,5445 6755,5450C6744,5468 6718,5461 6644,5420L6571,5380L6560,5415C6542,5470 6477,5495 6427,5468C6393,5450 6381,5428 6380,5387C6380,5357 6387,5342 6409,5321L6438,5294L6411,5279C6385,5264 6385,5264 6383,5296C6380,5350 6353,5390 6303,5412C6247,5437 6178,5431 6143,5398C6115,5372 6097,5318 6102,5280L6106,5252L6071,5271C6001,5308 5918,5291 5866,5230C5845,5205 5840,5188 5840,5147L5840,5096L5805,5130C5777,5157 5761,5164 5717,5168C5644,5174 5604,5153 5578,5093C5552,5034 5560,4991 5607,4939C5641,4901 5642,4900 5619,4900C5606,4900 5578,4897 5557,4894C5520,4887 5520,4887 5530,4914C5546,4958 5542,5005 5517,5041C5488,5084 5457,5100 5397,5100C5301,5100 5240,5046 5240,4962C5240,4922 5238,4919 5218,4926C5164,4942 5084,4983 5038,5015C4980,5057 4987,5031 5047,4980C5108,4930 5197,4892 5310,4869C5457,4839 5574,4840 5721,4874C5892,4913 6000,4960 6155,5061C6209,5097 6211,5098 6180,5070C6038,4943 5830,4838 5606,4780C5466,4744 5280,4759 5170,4815C5112,4845 5067,4893 4992,5007C4958,5057 4925,5101 4918,5104C4911,5107 4939,5107 4980,5103C5140,5086 5287,5094 5405,5124C5563,5165 5642,5198 5850,5315C6051,5428 6162,5480 6261,5507C6344,5529 6495,5529 6618,5505C6669,5496 6714,5490 6717,5494C6720,5497 6707,5516 6687,5535C6639,5582 6636,5628 6679,5671C6695,5687 6718,5700 6729,5700L6750,5700L6730,5680ZM6322,5370C6348,5350 6362,5303 6353,5260C6347,5227 6280,5180 6241,5180C6221,5180 6199,5190 6179,5208C6153,5231 6146,5246 6143,5287C6138,5332 6141,5342 6163,5364C6185,5386 6198,5390 6243,5390C6282,5390 6304,5384 6322,5370ZM6063,5229C6093,5206 6113,5149 6108,5105C6106,5081 6094,5069 6050,5042C5985,5003 5949,5005 5908,5050C5860,5102 5859,5180 5905,5226C5937,5258 6024,5260 6063,5229ZM5797,5095C5822,5066 5826,5027 5810,4968C5799,4928 5793,4924 5729,4915C5674,4908 5625,4935 5604,4985C5566,5078 5617,5135 5730,5126C5763,5123 5780,5115 5797,5095ZM5457,5053C5504,5031 5526,4985 5513,4934L5504,4895L5409,4896C5305,4897 5273,4908 5264,4945C5242,5035 5358,5100 5457,5053Z" style="fill:current;fill-rule:nonzero;"/>
            <path d="M6502,5160C6464,5151 6434,5126 6414,5088C6401,5063 6397,5062 6348,5066C6287,5072 6239,5052 6207,5009C6181,4973 6182,4886 6208,4851C6232,4817 6287,4790 6330,4790C6371,4790 6461,4830 6481,4856C6492,4871 6509,4875 6553,4876C6601,4876 6616,4881 6648,4907C6694,4945 6714,4998 6700,5049C6688,5094 6635,5147 6589,5160C6551,5171 6548,5171 6502,5160ZM6604,5130C6670,5105 6686,5051 6650,4980C6625,4931 6595,4910 6549,4910C6515,4910 6512,4913 6506,4945C6501,4968 6487,4989 6465,5007C6424,5040 6423,5048 6452,5085C6489,5132 6551,5150 6604,5130ZM6431,4991C6477,4946 6479,4923 6444,4880C6360,4780 6219,4810 6220,4928C6221,4992 6266,5029 6344,5030C6387,5030 6397,5026 6431,4991Z" style="fill:current;fill-rule:nonzero;"/>
            <path d="M7015,4945C6958,4884 6937,4869 6900,4861C6875,4855 6820,4832 6777,4810C6710,4775 6691,4770 6634,4770C6584,4770 6553,4763 6499,4740C6430,4711 6427,4711 6306,4717C6196,4722 6175,4721 6109,4700C6042,4680 6029,4679 5963,4690C5923,4696 5885,4698 5879,4694C5872,4690 5819,4688 5760,4688C5666,4690 5648,4687 5607,4667C5581,4654 5558,4645 5555,4648C5545,4658 5550,4684 5567,4702C5582,4719 5582,4720 5559,4720C5524,4720 5493,4695 5485,4662C5481,4641 5464,4625 5415,4597C5361,4566 5346,4551 5324,4508C5300,4461 5298,4448 5303,4376C5308,4296 5317,4280 5353,4280C5368,4280 5369,4286 5363,4323C5346,4420 5366,4457 5439,4467C5476,4472 5483,4470 5513,4437C5562,4385 5580,4341 5580,4268L5581,4205L5605,4235C5619,4252 5637,4284 5646,4306L5662,4348L5719,4308C5766,4276 5789,4267 5851,4259C5892,4253 5963,4244 6008,4238C6077,4229 6120,4230 6248,4244C6335,4253 6428,4263 6457,4265C6486,4268 6541,4282 6580,4296C6619,4310 6676,4325 6706,4330C6793,4344 6863,4382 6932,4452C6967,4487 7011,4528 7032,4543C7075,4576 7100,4624 7100,4675C7100,4695 7107,4737 7116,4767C7137,4838 7122,4977 7091,5012C7088,5016 7054,4986 7015,4945ZM7059,4867C7041,4792 6996,4685 6965,4644C6909,4571 6812,4517 6636,4461C6459,4404 6421,4399 6163,4393C5908,4387 5806,4395 5707,4429C5645,4451 5581,4507 5602,4522C5635,4545 5683,4560 5727,4560C5786,4560 5777,4570 5681,4608L5607,4637L5651,4648C5679,4655 5750,4657 5845,4653C6056,4646 6049,4645 6110,4668C6171,4692 6298,4697 6362,4680C6394,4671 6411,4673 6485,4700C6574,4731 6647,4738 6695,4720C6718,4711 6724,4714 6752,4746C6791,4790 6846,4819 6907,4826C6987,4835 7000,4839 7000,4858C7000,4877 7063,4942 7068,4928C7070,4923 7066,4896 7059,4867ZM7086,4750C7078,4720 7066,4675 7060,4650C7050,4614 7032,4590 6966,4527C6922,4484 6867,4438 6845,4425C6765,4378 6511,4305 6390,4295C6349,4292 6281,4284 6239,4278C6142,4264 5912,4281 5823,4308C5750,4331 5660,4385 5660,4407C5660,4416 5666,4419 5678,4416C5974,4324 6343,4339 6697,4455C6844,4504 6898,4531 6952,4587C7002,4639 7034,4706 7067,4827L7095,4930L7098,4867C7100,4833 7095,4781 7086,4750ZM5625,4590C5636,4585 5640,4581 5634,4581C5629,4580 5602,4566 5575,4549C5527,4518 5526,4518 5549,4506C5581,4488 5630,4412 5629,4381C5628,4349 5612,4305 5611,4332C5610,4342 5601,4373 5590,4403C5563,4474 5513,4505 5439,4497C5411,4493 5377,4481 5362,4470C5329,4444 5322,4459 5347,4502C5371,4543 5407,4568 5450,4574C5469,4576 5499,4583 5515,4588C5552,4601 5599,4601 5625,4590Z" style="fill:current;fill-rule:nonzero;"/>
            <path d="M4981,4686C4925,4666 4907,4635 4912,4563C4918,4464 4964,4430 5092,4430C5215,4430 5269,4474 5256,4564C5247,4622 5216,4669 5175,4686C5134,4703 5028,4703 4981,4686ZM5150,4655C5188,4635 5200,4612 5200,4556C5200,4488 5171,4470 5065,4470C4968,4470 4951,4482 4942,4555C4938,4590 4941,4605 4956,4622C4998,4668 5093,4685 5150,4655Z" style="fill:current;fill-rule:nonzero;"/>
        </g>
        <g class="vegetables" id="Poivron" transform="matrix(1,0,0,1,2720,-1370)">
            <path d="M1002,5284C919,5243 876,5174 846,5038C834,4983 768,4977 655,5020C576,5050 490,5051 434,5022C381,4995 337,4951 320,4908C304,4870 293,4860 264,4860C228,4860 153,4804 124,4755C78,4676 60,4576 60,4398C60,4002 155,3646 303,3483C378,3402 413,3387 545,3383C606,3381 680,3373 710,3364C814,3335 965,3358 1054,3417C1090,3440 1102,3442 1186,3441C1427,3436 1487,3535 1580,4090C1603,4225 1628,4376 1637,4425C1654,4530 1650,4667 1625,4747C1591,4860 1504,4930 1400,4930C1360,4930 1338,4935 1329,4946C1322,4954 1298,4971 1276,4983C1241,5002 1219,5005 1132,5005L1030,5005L1030,5047C1030,5112 1062,5143 1136,5150L1195,5155L1192,5198C1191,5221 1194,5249 1200,5260C1229,5314 1096,5331 1002,5284ZM1124,5254C1133,5246 1140,5236 1140,5234C1140,5231 1111,5201 1076,5167C962,5056 952,4973 1041,4888C1087,4845 1089,4840 1072,4831C1061,4825 1051,4823 1048,4825C1046,4827 1004,4834 956,4839C859,4850 702,4840 613,4816C561,4802 559,4802 506,4831C476,4848 428,4863 400,4867C355,4872 350,4875 356,4894C368,4936 423,4979 485,4995C554,5012 594,5008 662,4974C689,4960 727,4950 751,4950L793,4950L769,4931C756,4921 727,4903 704,4892C682,4881 657,4864 650,4854C637,4839 638,4838 670,4845C757,4863 849,4937 869,5005C874,5021 886,5060 895,5090C915,5159 971,5237 1013,5255C1056,5274 1105,5273 1124,5254ZM1466,4871C1587,4816 1621,4636 1572,4324C1504,3897 1457,3698 1390,3558C1360,3494 1309,3470 1194,3462L1108,3457L1137,3498C1161,3534 1170,3539 1203,3540C1233,3540 1250,3548 1285,3581C1354,3645 1397,3750 1465,4029C1515,4236 1533,4374 1527,4500C1516,4736 1437,4813 1223,4796C1126,4788 1117,4798 1186,4838C1278,4891 1393,4904 1466,4871ZM454,4822L494,4815L434,4802C331,4781 247,4713 222,4630C180,4497 211,4225 310,3840C381,3567 422,3489 505,3475C549,3467 590,3445 590,3430C590,3397 414,3444 356,3492C249,3580 170,3795 114,4150C71,4424 90,4618 170,4728C206,4778 237,4800 298,4816C351,4830 397,4832 454,4822ZM533,4804C536,4801 511,4784 477,4767C344,4697 298,4569 330,4352C379,4018 393,3935 409,3870C446,3722 482,3614 516,3547L550,3478L517,3485C466,3496 442,3517 411,3578C355,3689 269,4022 235,4265C217,4385 216,4574 231,4621C260,4706 326,4760 440,4789C527,4812 525,4812 533,4804ZM815,4776C720,4753 660,4708 624,4634C602,4589 597,4562 592,4472C587,4348 602,4149 631,3970C658,3809 708,3582 725,3549C742,3517 818,3447 859,3426C876,3417 890,3407 890,3403C890,3400 859,3400 820,3402C657,3414 539,3528 456,3755C403,3898 341,4308 353,4434C362,4526 406,4635 454,4685C515,4748 646,4787 800,4788L865,4788L815,4776ZM1052,4771C1095,4761 1148,4741 1169,4727C1244,4677 1286,4562 1275,4435L1270,4375L1285,4425C1293,4453 1302,4502 1306,4536C1314,4614 1291,4669 1225,4733L1177,4778L1244,4785C1281,4789 1314,4790 1317,4786C1321,4783 1313,4780 1301,4780C1245,4780 1218,4735 1268,4725C1283,4721 1306,4716 1320,4714C1334,4711 1356,4695 1371,4678C1392,4652 1401,4648 1423,4654C1455,4662 1459,4692 1434,4730C1423,4748 1427,4746 1449,4723C1496,4673 1515,4596 1514,4455C1514,4319 1496,4204 1440,3985C1380,3749 1346,3666 1285,3603C1245,3561 1227,3550 1202,3550L1171,3550L1189,3593C1215,3654 1240,3771 1239,3827L1238,3875L1230,3828C1196,3629 1085,3461 960,3420C928,3409 918,3411 881,3430C825,3458 756,3522 736,3564C704,3632 628,4033 616,4200C613,4241 608,4309 605,4350C596,4462 614,4593 645,4646C659,4669 676,4692 682,4696C689,4700 684,4690 672,4673C642,4630 642,4567 672,4546C703,4524 775,4526 838,4550C911,4578 929,4576 991,4531C1095,4457 1131,4446 1171,4478C1189,4493 1193,4506 1193,4544C1191,4659 1061,4730 854,4730C801,4730 756,4724 733,4715C703,4702 699,4702 710,4714C725,4733 791,4758 866,4775C949,4793 965,4792 1052,4771ZM983,4705C1109,4679 1180,4619 1180,4539C1180,4509 1174,4497 1156,4485C1134,4471 1128,4470 1096,4484C1076,4492 1034,4517 1003,4540C938,4587 910,4590 824,4559C762,4538 701,4538 675,4560C644,4585 668,4668 713,4691C769,4722 878,4727 983,4705Z" style="fill:current;fill-rule:nonzero;"/>
            <path d="M778,4670C768,4664 760,4647 760,4633C760,4611 763,4609 783,4614C865,4639 929,4633 984,4595C1025,4567 1058,4563 1066,4584C1074,4606 1053,4638 1017,4656C978,4677 804,4687 778,4670Z" style="fill:current;fill-rule:nonzero;"/>
        </g>
        <g class="vegetables" id="Champignon-quart" serif:id="Champignon quart" transform="matrix(1,0,0,1,80,-2090)">
            <path d="M7834,5135C7817,5122 7787,5091 7767,5067L7731,5023L7768,4943C7788,4899 7811,4849 7818,4832C7828,4809 7845,4796 7893,4776C7952,4751 8122,4709 8223,4695C8249,4691 8270,4686 8270,4685C8270,4683 8265,4669 8260,4655C8236,4591 8299,4494 8413,4422C8505,4364 8650,4302 8719,4291C8848,4270 8984,4318 9095,4422C9196,4516 9235,4617 9255,4846L9262,4917L9173,4928C9125,4934 9015,4947 8930,4956C8595,4990 8102,5084 7931,5144C7875,5165 7871,5164 7834,5135ZM7876,5023C7874,4958 7867,4892 7861,4875L7848,4845L7818,4910C7763,5029 7763,5027 7822,5087C7851,5116 7875,5140 7876,5140C7877,5140 7877,5087 7876,5023ZM8102,5065C8322,5003 8416,4985 8725,4950C9129,4905 9209,4895 9216,4887C9220,4884 9218,4832 9212,4772C9204,4678 9197,4653 9164,4584C9040,4331 8770,4257 8539,4413C8460,4465 8421,4525 8414,4601C8411,4631 8413,4661 8419,4669C8431,4687 8588,4710 8647,4703C8695,4697 8707,4686 8716,4643C8721,4619 8717,4607 8700,4590C8680,4570 8671,4569 8587,4573C8501,4577 8495,4579 8473,4606C8442,4645 8442,4615 8473,4569C8504,4523 8569,4476 8635,4451C8737,4413 8832,4429 8870,4492C8931,4593 8891,4673 8756,4720C8654,4755 8609,4756 8516,4726L8433,4699L8269,4730C8074,4767 7962,4795 7916,4816L7883,4832L7896,4875C7903,4899 7905,4922 7902,4926C7898,4930 7903,4930 7913,4927C7960,4909 7964,4909 7940,4928C7919,4946 7917,4950 7932,4955C7941,4959 7972,4954 8001,4946C8080,4922 8071,4933 7986,4964C7945,4979 7909,4998 7906,5007C7893,5040 7900,5050 7938,5051L7975,5052L7940,5065C7921,5072 7912,5079 7920,5079C7931,5080 7931,5083 7922,5092C7904,5110 7907,5122 7928,5116C7937,5113 8016,5090 8102,5065ZM8809,4624C8866,4551 8801,4468 8686,4467C8631,4466 8595,4481 8540,4528C8496,4566 8506,4578 8559,4551C8584,4538 8618,4530 8649,4530C8691,4530 8703,4535 8730,4562C8757,4588 8761,4600 8758,4631C8755,4663 8757,4667 8772,4659C8781,4654 8798,4638 8809,4624Z" style="fill:current;fill-rule:nonzero;"/>
        </g>
        <g class="vegetables" id="concombre" transform="matrix(0.962899,-1.41102e-17,-1.41102e-17,0.847681,2751.97,855.901)">
            <g transform="matrix(1,0,0,1,-340,40)">
                <path d="M3657,4633C3620,4607 3619,4607 3544,4618C3491,4626 3463,4627 3449,4619C3434,4611 3424,4613 3403,4629C3372,4654 3341,4655 3292,4633C3241,4611 3155,4610 3102,4633C3063,4650 3057,4650 3029,4636C3004,4624 2990,4623 2951,4632C2901,4643 2885,4639 2823,4600C2804,4587 2792,4588 2736,4603C2635,4630 2610,4626 2556,4579L2509,4538L2417,4536L2325,4535L2262,4487C2228,4460 2192,4427 2184,4414C2170,4394 2159,4390 2120,4390C2061,4390 2024,4364 2010,4310C2004,4289 1984,4256 1965,4237C1935,4207 1930,4195 1929,4153C1925,4051 1932,3975 1946,3959C1954,3951 1960,3935 1960,3924C1961,3914 1967,3894 1975,3880C1983,3866 1989,3830 1990,3800C1990,3752 1986,3740 1959,3710C1940,3688 1931,3683 1936,3695C1949,3729 1953,3831 1941,3843C1933,3851 1921,3846 1899,3824C1868,3795 1868,3795 1875,3820C1884,3851 1907,3878 1931,3885C1942,3889 1950,3896 1950,3901C1950,3917 1914,3911 1896,3891C1887,3881 1865,3869 1847,3866C1830,3863 1806,3850 1793,3838C1772,3819 1770,3818 1770,3834C1770,3860 1828,3910 1857,3910C1881,3910 1879,3913 1838,3944C1813,3963 1789,3987 1786,3997C1780,4012 1783,4011 1802,3993C1835,3963 1885,3940 1917,3940C1942,3941 1940,3943 1895,3965C1818,4003 1800,4022 1780,4081C1761,4135 1761,4135 1751,4107C1729,4049 1743,3987 1789,3946L1810,3927L1785,3898C1766,3876 1760,3857 1760,3822L1760,3775L1783,3802C1795,3817 1817,3834 1832,3839L1858,3849L1848,3735L1880,3778C1917,3827 1940,3833 1940,3793C1940,3746 1921,3695 1895,3670C1863,3640 1863,3632 1896,3638C1934,3645 1987,3703 2007,3760L2024,3809L2050,3786C2064,3773 2104,3744 2139,3721C2213,3674 2258,3668 2320,3700L2360,3720L2389,3699C2430,3669 2482,3677 2556,3728C2650,3791 2662,3793 2866,3775C3058,3758 3102,3750 3153,3721C3170,3710 3205,3699 3230,3695C3255,3692 3302,3683 3335,3675C3368,3667 3412,3658 3433,3655C3454,3652 3486,3636 3505,3618C3542,3586 3590,3571 3653,3570C3674,3570 3704,3563 3721,3555C3777,3525 3946,3490 4027,3490C4124,3490 4159,3506 4265,3593C4356,3670 4394,3722 4418,3801L4434,3857L4490,3857C4557,3857 4593,3874 4647,3933C4695,3985 4717,4048 4700,4081C4691,4097 4681,4100 4652,4098C4616,4095 4615,4094 4615,4057C4615,4025 4608,4012 4577,3984C4544,3954 4533,3949 4497,3952L4455,3955L4443,4072C4430,4213 4417,4242 4320,4362C4242,4459 4164,4515 4126,4501C4112,4495 4081,4504 4020,4532C3964,4559 3915,4574 3875,4577C3824,4582 3809,4589 3771,4622C3747,4643 3720,4660 3711,4660C3702,4660 3678,4648 3657,4633ZM3757,4585C3783,4553 3791,4549 3865,4539C3922,4532 3968,4517 4028,4488C4095,4456 4114,4451 4125,4460C4167,4495 4280,4384 4355,4237C4399,4150 4404,4134 4407,4058C4410,4004 4408,3980 4402,3989C4388,4009 4377,3985 4390,3961C4401,3940 4413,3935 4477,3925C4554,3913 4635,3974 4642,4050C4645,4086 4658,4093 4674,4068C4700,4026 4622,3927 4537,3895C4491,3878 4488,3878 4430,3897C4387,3911 4366,3913 4353,3906C4337,3897 4337,3895 4360,3890C4382,3884 4385,3879 4384,3838C4383,3715 4169,3540 4020,3540C3930,3540 3671,3610 3539,3670C3468,3703 3401,3726 3360,3732C3324,3738 3250,3755 3195,3771C3081,3803 2931,3820 2756,3820C2613,3820 2589,3814 2526,3766C2473,3725 2412,3717 2372,3746C2353,3759 2344,3759 2313,3749C2269,3735 2182,3744 2126,3769C2079,3789 2017,3854 1997,3902C1949,4017 1956,4169 2011,4224C2027,4240 2040,4263 2040,4277C2040,4290 2051,4312 2065,4325C2094,4355 2122,4360 2096,4331C2086,4320 2072,4282 2064,4247C2051,4193 2045,4181 2025,4176C2006,4171 2000,4161 1995,4127C1987,4069 1993,3958 2003,3976C2010,3988 2014,3988 2033,3975C2068,3951 2099,3956 2118,3990C2127,4006 2140,4021 2145,4023C2151,4025 2193,4024 2240,4021C2346,4014 2437,4022 2476,4043C2560,4089 2575,4093 2659,4092C2736,4091 2747,4093 2778,4116C2820,4148 2836,4146 2979,4084C3112,4027 3169,4020 3277,4048C3320,4059 3378,4071 3405,4075C3504,4087 3802,4034 3875,3991C3920,3965 3995,3947 4064,3946C4152,3945 4160,3950 4160,4009C4160,4052 4164,4062 4185,4076C4215,4096 4219,4139 4192,4163C4182,4172 4129,4200 4074,4225C3995,4261 3964,4270 3919,4270C3870,4270 3860,4274 3824,4307C3755,4370 3701,4400 3652,4400C3627,4400 3569,4413 3521,4429C3446,4455 3416,4460 3283,4465C3200,4468 3109,4475 3081,4480C3053,4485 2974,4494 2905,4500C2836,4505 2764,4517 2744,4525C2682,4551 2648,4544 2576,4495C2518,4455 2507,4452 2483,4461C2466,4467 2426,4469 2382,4464C2312,4458 2306,4455 2265,4414C2242,4390 2217,4370 2211,4370C2177,4370 2278,4468 2333,4489C2371,4504 2453,4503 2486,4488C2510,4477 2514,4478 2529,4500C2584,4585 2627,4597 2737,4558C2805,4535 2816,4537 2873,4582C2900,4604 2902,4604 2947,4588C2988,4573 2996,4573 3014,4586C3041,4604 3070,4604 3099,4584C3115,4573 3134,4569 3162,4573C3184,4576 3213,4574 3226,4568C3245,4559 3254,4562 3280,4584C3319,4617 3360,4617 3397,4586C3422,4564 3426,4563 3448,4578C3467,4591 3479,4591 3521,4582C3594,4565 3621,4568 3655,4595C3696,4629 3723,4627 3757,4585ZM2727,4516C2783,4494 2864,4480 2928,4480C2959,4480 3028,4473 3080,4465C3132,4457 3199,4450 3229,4450C3273,4450 3281,4447 3276,4434C3273,4425 3270,4408 3270,4395C3270,4372 3270,4372 3219,4387C3183,4398 3149,4400 3106,4395C3004,4384 2910,4391 2937,4408C2943,4412 2915,4415 2875,4415C2810,4415 2798,4412 2775,4390C2747,4363 2694,4358 2619,4374C2587,4381 2579,4379 2549,4351L2515,4319L2557,4339C2622,4371 2641,4363 2583,4329C2554,4312 2530,4296 2530,4294C2530,4291 2608,4291 2703,4293C2864,4297 2878,4299 2925,4323L2975,4349L3135,4340C3223,4335 3303,4328 3313,4325C3325,4320 3330,4323 3330,4335C3330,4344 3321,4354 3310,4357C3287,4363 3282,4414 3302,4426C3346,4454 3478,4442 3550,4405C3567,4396 3605,4387 3637,4385C3701,4379 3761,4349 3815,4293C3848,4259 3855,4256 3913,4255C3968,4254 3989,4247 4085,4200C4153,4166 4196,4138 4198,4128C4200,4118 4189,4100 4174,4087C4153,4069 4146,4052 4142,4011L4137,3957L4049,3962C3977,3967 3949,3973 3896,3999C3819,4036 3751,4054 3613,4075C3466,4097 3388,4094 3274,4064C3154,4033 3131,4036 2995,4094C2823,4169 2812,4170 2757,4122C2744,4110 2715,4106 2647,4105C2562,4104 2550,4102 2491,4070L2426,4035L2126,4035L2110,4008C2100,3988 2087,3980 2069,3980C1972,3980 2051,4106 2213,4211C2272,4249 2277,4251 2335,4245C2387,4240 2398,4242 2420,4261C2440,4277 2441,4280 2425,4274C2414,4269 2376,4266 2341,4268C2286,4270 2270,4266 2225,4240C2144,4193 2071,4131 2039,4081L2010,4035L2010,4098C2010,4145 2013,4160 2024,4160C2050,4160 2067,4187 2080,4250C2094,4317 2097,4320 2188,4351C2219,4362 2261,4386 2280,4404C2325,4447 2411,4464 2495,4445C2520,4440 2533,4444 2565,4470C2605,4503 2655,4529 2677,4530C2684,4530 2707,4524 2727,4516ZM3075,4380C3133,4394 3194,4386 3279,4354L3315,4341L3260,4345C3230,4348 3150,4352 3082,4355L2959,4361L2904,4330C2855,4301 2847,4300 2815,4310C2791,4318 2770,4318 2743,4311C2722,4305 2674,4300 2635,4300C2569,4300 2567,4301 2588,4316C2606,4328 2624,4330 2670,4325C2717,4320 2742,4322 2790,4339C2823,4351 2858,4360 2868,4360C2877,4361 2896,4367 2908,4374C2926,4384 2943,4384 2976,4377C3008,4369 3034,4370 3075,4380Z" style="fill:current;fill-rule:nonzero;"/>
            </g>
            <g transform="matrix(1,0,0,1,-340,40)">
                <path d="M2796,4080C2763,4051 2758,4050 2683,4052C2620,4054 2598,4051 2565,4034C2541,4021 2496,4011 2453,4007C2375,4001 2364,3996 2268,3936C2222,3906 2192,3895 2146,3890L2085,3883L2138,3881C2185,3880 2207,3888 2312,3940C2413,3991 2440,4000 2485,4000C2517,4000 2556,4008 2585,4021C2626,4039 2644,4041 2707,4036C2780,4029 2782,4030 2816,4060C2857,4096 2864,4096 2910,4070L2945,4049L2912,4080C2871,4118 2840,4118 2796,4080Z" style="fill:current;fill-rule:nonzero;"/>
            </g>
        </g>
        <g class="vegetables" id="Pommes-de-terre" serif:id="Pommes de terre" transform="matrix(0.867531,7.87363e-18,7.87363e-18,0.931824,-3705.93,1342.43)">
            <path d="M6938,4265C6791,4239 6641,4194 6574,4155C6513,4120 6463,4059 6446,3999C6437,3970 6430,3941 6430,3933C6430,3919 6425,3918 6292,3894C6226,3882 6173,3865 6108,3834C6006,3784 5899,3722 5855,3686L5825,3662L5754,3729C5644,3831 5582,3863 5411,3904C5162,3964 5079,3969 4921,3934C4819,3911 4751,3868 4650,3764C4507,3616 4469,3509 4490,3317C4520,3049 4580,2978 4853,2891C5018,2838 5092,2828 5272,2832L5435,2836L5604,2892L5774,2947L5889,2890C6231,2721 6423,2677 6830,2676C7102,2675 7165,2685 7296,2749C7392,2797 7486,2881 7534,2963C7568,3021 7597,3132 7587,3170C7583,3186 7589,3190 7629,3195C7727,3208 7874,3251 7933,3283C8039,3341 8098,3445 8107,3595C8119,3782 8035,3936 7840,4080C7582,4270 7302,4328 6938,4265ZM7350,4240C7637,4204 7846,4084 7981,3877C8035,3794 8054,3730 8054,3635C8053,3519 8025,3453 7941,3370C7860,3290 7809,3269 7667,3262C7570,3258 7569,3258 7563,3281C7550,3330 7458,3497 7419,3543C7358,3614 7251,3684 7136,3729C6978,3790 6616,3899 6542,3908L6475,3915L6479,3955C6491,4093 6634,4184 6901,4224C7081,4251 7218,4256 7350,4240ZM5204,3910C5402,3879 5457,3864 5557,3815C5651,3769 5763,3678 5775,3639C5779,3626 5773,3610 5757,3591C5706,3531 5660,3405 5660,3326C5660,3305 5671,3249 5685,3201C5742,3010 5740,3016 5727,3004C5706,2983 5528,2912 5444,2891C5280,2849 5169,2853 4950,2906C4704,2967 4596,3056 4550,3235C4498,3438 4548,3633 4683,3756C4751,3817 4894,3892 4986,3914C5063,3933 5053,3933 5204,3910ZM6580,3854C6657,3840 6937,3747 7109,3678C7310,3599 7397,3523 7481,3353C7534,3248 7535,3243 7535,3160C7535,3088 7531,3067 7508,3020C7444,2890 7295,2788 7097,2739C6978,2709 6751,2702 6600,2724C6261,2774 5944,2883 5825,2992C5767,3045 5759,3061 5716,3222C5694,3303 5692,3327 5700,3369C5713,3437 5760,3538 5801,3585C5871,3665 6163,3830 6286,3859C6348,3873 6491,3871 6580,3854Z" style="fill:current;fill-rule:nonzero;"/>
        </g>
        <g class="vegetables" id="Ails" transform="matrix(0.861292,-2.16737e-32,2.16737e-32,0.861292,1311.99,-1435.05)">
            <path d="M8335,3585C8347,3559 8354,3454 8345,3432C8340,3419 8335,3424 8320,3455C8310,3477 8292,3506 8280,3520C8257,3547 8256,3548 8286,3470C8293,3451 8299,3415 8299,3390L8298,3345L8274,3399C8260,3428 8248,3451 8246,3449C8244,3447 8246,3418 8251,3385C8264,3280 8261,3222 8241,3182C8208,3117 8104,3031 7940,2932C7838,2871 7707,2767 7651,2704C7572,2614 7534,2494 7558,2408L7568,2371L7537,2377C7496,2384 7427,2414 7391,2439C7376,2450 7344,2463 7321,2469C7283,2477 7278,2476 7260,2453C7249,2439 7240,2422 7240,2415C7240,2408 7220,2386 7195,2366C7142,2322 7140,2305 7176,2229C7245,2087 7344,1972 7455,1905C7636,1797 7914,1799 8092,1910C8122,1928 8142,1935 8146,1928C8157,1910 8233,1882 8290,1875C8359,1867 8464,1890 8538,1930L8592,1959L8622,1937C8685,1890 8866,1904 8983,1965C9020,1984 9056,2000 9063,2000C9099,2000 9200,2063 9251,2116C9444,2321 9430,2589 9215,2806C9129,2893 9038,2956 8835,3070C8658,3170 8593,3215 8573,3253C8549,3298 8552,3391 8579,3458C8590,3487 8600,3515 8600,3520C8600,3537 8536,3510 8505,3480L8473,3449L8432,3494C8401,3528 8390,3548 8390,3572C8389,3600 8388,3602 8379,3587C8369,3569 8368,3569 8347,3587C8327,3605 8327,3604 8335,3585ZM8550,3438C8471,3272 8533,3178 8817,3031C9010,2931 9092,2871 9178,2770C9294,2632 9354,2477 9331,2375C9315,2302 9268,2209 9223,2159C9189,2121 9107,2060 9089,2060C9085,2060 9094,2088 9108,2123C9159,2251 9132,2420 9032,2580C9004,2626 8933,2709 8850,2795C8775,2872 8690,2964 8660,3000C8591,3083 8582,3092 8605,3055C8647,2985 8736,2868 8806,2789C9004,2568 9060,2450 9061,2254C9061,2181 9057,2152 9039,2111C8997,2012 8898,1956 8763,1955C8701,1955 8688,1958 8666,1979L8640,2003L8659,2034C8715,2124 8748,2317 8731,2443C8716,2553 8698,2595 8584,2806C8464,3025 8415,3140 8398,3240C8391,3278 8382,3310 8378,3310C8366,3310 8369,3389 8383,3444L8396,3493L8434,3441L8473,3389L8522,3444C8549,3475 8573,3500 8575,3500C8577,3500 8566,3472 8550,3438ZM8366,3306C8373,3277 8349,3189 8311,3105C8295,3071 8246,3000 8195,2940C8050,2768 8002,2680 7977,2545C7971,2512 7961,2482 7956,2478C7937,2465 7706,2391 7664,2384L7623,2378L7613,2429C7584,2576 7677,2696 7976,2895C8238,3070 8277,3112 8299,3245C8304,3273 8308,3285 8309,3273C8311,3232 8329,3240 8335,3285C8343,3334 8356,3344 8366,3306ZM8440,2995C8469,2924 8526,2799 8566,2719C8666,2518 8680,2473 8680,2353C8680,2190 8636,2060 8563,2004C8452,1919 8255,1885 8189,1939L8167,1957L8196,1995C8212,2016 8270,2121 8325,2229C8443,2460 8456,2473 8558,2468C8627,2465 8632,2473 8581,2507C8530,2542 8452,2553 8296,2548C8187,2544 8139,2538 8087,2521C8049,2509 8017,2500 8015,2502C8005,2512 8036,2625 8066,2686C8099,2754 8249,2940 8270,2940C8276,2940 8279,2943 8278,2948C8277,2952 8287,2975 8302,3000C8316,3025 8339,3066 8351,3093C8364,3119 8377,3137 8380,3133C8384,3128 8411,3067 8440,2995ZM8500,2511C8523,2504 8522,2502 8482,2490C8418,2470 8371,2411 8285,2241C8194,2062 8133,1987 8037,1940C7899,1873 7710,1862 7556,1915C7432,1956 7356,2021 7266,2163C7209,2252 7239,2269 7324,2197C7407,2126 7451,2101 7534,2080C7626,2057 7646,2060 7567,2085C7491,2109 7423,2149 7356,2211C7307,2256 7301,2265 7315,2273C7328,2280 7340,2274 7368,2247C7444,2173 7562,2131 7705,2125L7805,2121L7726,2130C7576,2148 7450,2200 7385,2271L7351,2309L7373,2352C7385,2376 7395,2396 7395,2397C7396,2398 7418,2388 7446,2374C7553,2321 7691,2333 7895,2411C8024,2460 8081,2476 8215,2499C8327,2519 8455,2524 8500,2511ZM7337,2434C7347,2407 7309,2321 7273,2290C7226,2248 7195,2252 7195,2299C7195,2327 7201,2337 7224,2350C7241,2359 7258,2379 7263,2395C7268,2412 7273,2430 7275,2436C7280,2452 7331,2450 7337,2434Z" style="fill:current;fill-rule:nonzero;"/>
            <path d="M8365,2458C8312,2439 8244,2382 8206,2325C8186,2295 8153,2245 8133,2214C8091,2150 8058,2123 7957,2068C7877,2025 7900,2027 8000,2072C8081,2108 8128,2152 8195,2255C8247,2336 8328,2418 8382,2446C8428,2470 8418,2477 8365,2458Z" style="fill:current;fill-rule:nonzero;"/>
        </g>
        <g class="vegetables" id="carotte" transform="matrix(0.97493,0,0,0.97493,5461.67,-1682.53)">
            <path d="M1940,3483C1718,3448 1332,3356 1207,3309C1065,3255 830,3135 704,3052C562,2957 434,2837 395,2760C371,2713 368,2698 372,2624C374,2558 379,2536 397,2512L419,2482L312,2402C253,2358 174,2295 135,2263C73,2210 65,2199 67,2171C68,2134 94,2100 121,2100C130,2100 169,2132 207,2171C244,2210 300,2259 330,2279C408,2332 421,2338 375,2299C243,2187 234,2173 270,2128L289,2103L264,2079C211,2030 216,1972 275,1940C307,1923 328,1933 350,1976C358,1992 378,2028 395,2055C412,2083 429,2113 433,2124C439,2139 443,2140 455,2130C467,2120 463,2105 424,2028C374,1928 373,1902 416,1873C437,1860 448,1859 470,1867C496,1877 498,1875 504,1851C514,1803 525,1796 586,1795L643,1795L675,1915C693,1981 713,2054 719,2077L731,2120L781,2094C849,2060 970,2030 1041,2030C1251,2030 1427,2189 1660,2590C1889,2983 2126,3246 2391,3401C2429,3423 2460,3445 2460,3451C2460,3456 2444,3468 2425,3476C2398,3487 2343,3490 2178,3489C2061,3488 1954,3485 1940,3483ZM2367,3444C2363,3440 2345,3436 2325,3434C2283,3431 2093,3339 1996,3275C1958,3250 1926,3231 1926,3232C1925,3234 1917,3253 1908,3276L1893,3317L1986,3351C2078,3384 2107,3410 2053,3410C2005,3410 1640,3332 1495,3291C1238,3218 1096,3154 895,3021C802,2959 793,2955 770,2967C756,2974 735,2980 723,2980C681,2980 699,2999 794,3054C1093,3230 1601,3398 1955,3438C2048,3449 2376,3453 2367,3444ZM2250,3373C2169,3306 1930,3066 1872,2993L1815,2921L1806,2963C1802,2986 1788,3018 1777,3034L1756,3063L1796,3098C1905,3193 1941,3221 2007,3264C2082,3312 2267,3409 2285,3410C2291,3410 2275,3393 2250,3373ZM1810,3340C1810,3335 1819,3330 1830,3330C1841,3330 1850,3326 1850,3320C1850,3315 1845,3310 1840,3310C1834,3310 1757,3279 1669,3241C1509,3172 1508,3172 1489,3191C1469,3211 1470,3211 1515,3231C1577,3259 1572,3263 1503,3239C1472,3229 1434,3220 1419,3220C1404,3220 1387,3214 1383,3207C1379,3200 1344,3181 1305,3165C1129,3093 991,3014 901,2933L856,2893L834,2919L813,2944L854,2975C1048,3120 1291,3226 1625,3311C1787,3352 1810,3355 1810,3340ZM1899,3261L1917,3222L1837,3154C1788,3111 1750,3086 1738,3088C1723,3089 1720,3086 1724,3072C1728,3059 1712,3033 1668,2984C1585,2892 1470,2755 1385,2648C1321,2566 1300,2546 1300,2570C1300,2586 1239,2650 1224,2650C1202,2650 1207,2636 1240,2607C1265,2584 1270,2572 1270,2535C1270,2494 1265,2486 1202,2422C1124,2343 1048,2301 966,2293C935,2290 910,2290 910,2292C910,2295 917,2317 925,2341C941,2385 938,2416 920,2405C915,2402 910,2390 910,2380C910,2370 906,2350 900,2335C884,2292 855,2321 840,2399C828,2455 819,2472 783,2509C751,2542 735,2551 719,2547C707,2544 684,2548 668,2556C651,2565 619,2570 594,2569C508,2563 481,2635 520,2765C532,2804 542,2844 544,2854C545,2865 566,2891 591,2912C633,2949 638,2951 692,2947C724,2945 752,2941 756,2937C760,2934 739,2905 711,2873C655,2810 627,2744 650,2730C657,2726 669,2724 677,2727C698,2735 755,2690 789,2638C807,2612 824,2590 829,2590C833,2590 859,2618 887,2653C957,2740 1072,2861 1131,2911L1181,2953L1221,2914C1243,2893 1274,2853 1290,2825C1313,2787 1320,2780 1320,2798C1320,2835 1280,2910 1244,2938C1225,2953 1210,2968 1210,2972C1210,2982 1333,3062 1422,3109C1477,3139 1500,3147 1503,3138C1507,3129 1509,3130 1509,3141C1510,3150 1527,3164 1548,3173C1568,3181 1648,3215 1725,3248C1802,3281 1868,3306 1873,3303C1877,3301 1888,3282 1899,3261ZM1466,3176C1489,3159 1490,3160 1413,3121C1379,3104 1315,3065 1270,3035C1190,2980 1188,2980 1149,2991C1128,2998 1107,3000 1104,2997C1090,2984 1111,2960 1136,2960C1159,2960 1152,2950 1069,2871C1017,2822 944,2744 905,2697C867,2650 833,2611 830,2611C827,2610 812,2630 797,2655C765,2705 715,2740 676,2740C652,2740 650,2743 655,2763C665,2796 709,2857 748,2891L783,2922L808,2896L834,2871L781,2815C730,2761 728,2758 745,2739C769,2713 772,2714 794,2754C804,2773 823,2799 837,2812C857,2831 863,2832 871,2820C879,2808 880,2810 875,2827C870,2845 881,2858 937,2903C974,2933 1032,2975 1065,2996C1133,3039 1419,3189 1436,3190C1441,3190 1455,3184 1466,3176ZM1761,3024C1768,3015 1777,2981 1781,2948L1788,2888L1715,2780C1645,2675 1642,2672 1636,2701C1630,2734 1594,2790 1580,2790C1575,2790 1579,2775 1588,2758C1596,2740 1605,2703 1608,2675C1611,2632 1605,2613 1572,2545C1520,2440 1478,2383 1377,2282C1302,2206 1193,2123 1146,2106C1131,2101 1129,2103 1135,2117C1148,2149 1152,2217 1143,2235C1135,2249 1131,2242 1126,2202C1117,2131 1081,2090 1030,2090C993,2090 832,2128 777,2149L749,2160L780,2217C797,2249 820,2286 831,2299C849,2321 852,2322 867,2307C882,2292 881,2288 856,2256C841,2236 825,2220 819,2220C814,2220 810,2216 810,2210C810,2190 833,2201 872,2240C909,2276 917,2280 965,2280C1037,2280 1125,2326 1206,2405C1241,2439 1271,2462 1273,2456C1276,2450 1287,2467 1299,2494C1320,2543 1534,2817 1651,2945C1686,2983 1720,3020 1725,3027C1738,3043 1745,3043 1761,3024ZM509,2778C482,2687 484,2619 515,2582C542,2550 542,2550 487,2516L459,2499L445,2534C426,2579 426,2656 445,2709C458,2746 515,2840 525,2840C527,2840 520,2812 509,2778ZM669,2541C679,2535 666,2519 619,2481C584,2453 549,2432 541,2435C524,2442 281,2288 215,2228L163,2180L144,2201C125,2222 126,2222 164,2253C259,2331 363,2404 460,2462C518,2496 569,2530 573,2537C582,2552 648,2554 669,2541ZM780,2490L799,2463L760,2445C704,2420 678,2388 616,2270C563,2168 561,2166 551,2193C545,2209 527,2226 509,2234L478,2247L581,2335C638,2384 689,2427 695,2432C700,2437 700,2444 693,2451C686,2458 655,2438 588,2381C473,2285 430,2235 430,2198C430,2153 401,2148 364,2187L333,2219L439,2299C497,2342 585,2412 634,2453C731,2533 746,2537 780,2490ZM817,2394C832,2362 828,2353 764,2263C708,2185 683,2121 650,1970C638,1918 627,1874 626,1872C624,1871 615,1876 606,1885C597,1894 576,1902 559,1902C529,1903 529,1904 535,1944C557,2074 652,2304 716,2379C759,2429 798,2435 817,2394Z" style="fill:current;fill-rule:nonzero;"/>
        </g>
        <g class="vegetables" id="Navets" transform="matrix(0.96,1.01787e-17,1.01787e-17,1.04312,5109.6,1634.6)">
            <path d="M3490,3370C3396,3344 3274,3237 3180,3099C3121,3013 3060,2955 3016,2944C3003,2941 2959,2956 2907,2980C2803,3029 2723,3044 2590,3038C2511,3035 2485,3030 2438,3007C2366,2972 2316,2916 2272,2821C2241,2754 2236,2733 2232,2650C2227,2536 2244,2482 2320,2366L2368,2292L2340,2265C2296,2223 2278,2233 2249,2310C2231,2356 2176,2417 2128,2441C2077,2467 1971,2478 1959,2459C1947,2440 1948,2373 1960,2349C1970,2332 1967,2330 1938,2330C1887,2329 1828,2298 1782,2245C1759,2219 1740,2194 1740,2190C1740,2178 1806,2131 1852,2110C1936,2072 2068,2092 2179,2160C2205,2177 2235,2190 2246,2190C2261,2190 2258,2184 2231,2156C2199,2123 2199,2122 2214,2092C2236,2049 2242,2048 2286,2076L2325,2101L2296,2075C2268,2049 2267,2047 2283,2022C2291,2007 2308,1994 2319,1992C2344,1988 2403,2047 2460,2135C2484,2171 2505,2199 2507,2197C2509,2195 2492,2161 2470,2123C2448,2084 2430,2046 2430,2038C2430,2014 2465,1989 2507,1983C2544,1978 2547,1979 2563,2016C2572,2038 2584,2074 2590,2098C2599,2133 2605,2140 2619,2135C2670,2119 2781,2100 2826,2100C2933,2100 3063,2165 3134,2257C3169,2302 3170,2302 3170,2276C3170,2255 3156,2235 3114,2196C3068,2154 2980,2041 2980,2024C2980,2022 2997,2020 3018,2020C3061,2020 3124,2057 3160,2103C3207,2163 3280,2175 3378,2139C3506,2091 3571,2079 3675,2082C3762,2085 3783,2090 3842,2117C3955,2170 4073,2311 4119,2448C4154,2550 4144,2722 4100,2811C4082,2845 4082,2847 4101,2877C4142,2942 4259,2970 4413,2953C4455,2948 4490,2947 4490,2950C4490,2968 4466,3027 4452,3043C4444,3052 4420,3065 4399,3070C4364,3080 4361,3083 4358,3123C4356,3158 4351,3166 4333,3168C4318,3170 4310,3178 4310,3191C4310,3202 4298,3222 4284,3237C4262,3258 4253,3261 4220,3256C4184,3250 4181,3252 4178,3277C4176,3294 4165,3310 4147,3320C4121,3334 4116,3333 4047,3299C4008,3279 3963,3260 3949,3256C3904,3246 3856,3206 3825,3153C3804,3116 3790,3102 3780,3106C3713,3132 3514,3122 3424,3089C3327,3052 3244,2960 3190,2827L3166,2769L3152,2795C3140,2819 3141,2824 3178,2865C3214,2906 3264,3007 3310,3130C3343,3221 3395,3280 3479,3322C3540,3352 3549,3360 3533,3368C3523,3373 3504,3374 3490,3370ZM4120,3280C4136,3269 4140,3273 4030,3181C4005,3160 3972,3119 3956,3089C3940,3059 3926,3034 3924,3032C3916,3021 3880,3059 3880,3078C3880,3127 3947,3207 4035,3263C4079,3291 4097,3295 4120,3280ZM4264,3214C4288,3191 4283,3171 4253,3165C4110,3135 4068,3117 4006,3060C3981,3036 3960,3020 3960,3024C3960,3027 3968,3048 3977,3071C3992,3111 4000,3116 4114,3171C4181,3203 4238,3230 4242,3230C4246,3230 4256,3223 4264,3214ZM3292,3178C3287,3171 3270,3131 3256,3090C3201,2937 3173,2887 3114,2841C3057,2796 3055,2793 3069,2771C3077,2758 3081,2758 3095,2770C3110,2782 3114,2782 3127,2765C3143,2742 3165,2666 3174,2603C3182,2548 3168,2547 3119,2601L3080,2643L3000,2637C2956,2633 2913,2633 2905,2637C2896,2640 2883,2658 2875,2676C2861,2710 2829,2730 2789,2730C2778,2730 2751,2744 2729,2762C2687,2796 2677,2830 2710,2830C2740,2830 2734,2853 2700,2873C2666,2893 2660,2929 2686,2951C2695,2958 2706,2974 2711,2987C2718,3006 2724,3008 2757,3003C2800,2997 2937,2943 2946,2929C2949,2924 2937,2920 2919,2920C2892,2920 2889,2918 2900,2905C2917,2885 2939,2886 3006,2910C3078,2935 3150,2990 3186,3048C3221,3104 3288,3190 3296,3190C3300,3190 3298,3184 3292,3178ZM4328,3110C4331,3085 4328,3084 4247,3073C4157,3061 4075,3027 4028,2983C4002,2958 3980,2959 3980,2984C3980,2998 4029,3046 4078,3080C4127,3113 4218,3140 4275,3137C4320,3135 4325,3133 4328,3110ZM3739,3069C3827,3055 3899,3019 3953,2961C4126,2777 4125,2463 3953,2278C3885,2206 3800,2158 3698,2136L3671,2130L3688,2159C3704,2188 3704,2190 3684,2217C3671,2234 3647,2249 3623,2255C3560,2271 3548,2285 3556,2337C3561,2371 3559,2385 3545,2400C3524,2423 3485,2425 3450,2405C3415,2385 3372,2386 3366,2408C3364,2417 3356,2452 3350,2485C3335,2566 3312,2627 3294,2634C3286,2637 3266,2633 3251,2626L3224,2611L3207,2665C3191,2716 3192,2721 3210,2776C3239,2859 3273,2911 3332,2965C3443,3065 3568,3097 3739,3069ZM4389,3041C4402,3038 4416,3026 4420,3015C4427,2996 4423,2995 4311,2995C4186,2995 4153,2985 4081,2924C4050,2898 4049,2898 4035,2916C4011,2949 4049,2975 4190,3021C4272,3048 4340,3055 4389,3041ZM2690,2999C2690,2993 2679,2975 2665,2958C2635,2922 2633,2897 2661,2871C2674,2859 2678,2850 2671,2845C2665,2842 2660,2826 2660,2810C2660,2788 2667,2777 2688,2766C2703,2758 2724,2743 2734,2731C2745,2719 2761,2710 2770,2710C2809,2710 2849,2688 2860,2659C2878,2615 2901,2607 2984,2615L3056,2622L3104,2581C3130,2558 3158,2540 3166,2540C3176,2540 3180,2526 3180,2482C3180,2377 3095,2254 2979,2193C2930,2167 2916,2165 2820,2165C2687,2165 2573,2199 2464,2272C2383,2326 2341,2377 2308,2460C2276,2540 2277,2710 2309,2793C2340,2871 2386,2929 2440,2957C2513,2994 2690,3024 2690,2999ZM3321,2495C3350,2369 3355,2362 3414,2378C3505,2402 3545,2386 3533,2329C3526,2292 3548,2265 3608,2239C3653,2219 3656,2211 3639,2160C3628,2129 3626,2128 3581,2134C3556,2137 3488,2154 3430,2170C3253,2221 3194,2210 3097,2107C3042,2050 3039,2048 3060,2085C3073,2107 3110,2150 3143,2182L3203,2238L3196,2288C3191,2326 3194,2347 3211,2384C3225,2418 3231,2452 3232,2506C3232,2570 3235,2582 3253,2595C3285,2617 3296,2600 3321,2495ZM2073,2429C2123,2415 2185,2358 2216,2298C2229,2272 2236,2250 2232,2250C2227,2250 2203,2267 2179,2289C2155,2310 2124,2331 2110,2335L2085,2342L2114,2312C2130,2295 2167,2268 2196,2253C2226,2238 2250,2221 2250,2217C2250,2202 2206,2222 2140,2266C2104,2290 2062,2312 2047,2316C2013,2324 1980,2372 1980,2413C1980,2436 1984,2440 2008,2440C2023,2440 2052,2435 2073,2429ZM2050,2276C2082,2263 2119,2244 2132,2235C2154,2220 2151,2219 2075,2225C2002,2231 1990,2230 1936,2206C1866,2175 1866,2165 1935,2185C1987,2201 2117,2205 2138,2191C2148,2185 2131,2174 2083,2154C1989,2115 1899,2115 1816,2153L1757,2180L1786,2212C1869,2301 1944,2319 2050,2276Z" style="fill:current;fill-rule:nonzero;"/>
        </g>
        <g class="vegetables" id="Piments" transform="matrix(1,0,0,1,-1100,3730)">
            <path d="M5654,2738C5617,2718 5571,2667 5565,2638L5558,2609L5517,2650C5475,2690 5444,2707 5432,2696C5429,2692 5431,2672 5436,2651L5447,2612L5396,2601C5325,2585 5254,2542 5168,2463C5083,2384 5023,2339 4925,2282C4819,2220 4748,2200 4636,2200C4439,2200 4332,2151 4314,2054C4306,2009 4314,2001 4343,2028C4356,2040 4373,2050 4380,2050C4388,2050 4378,2039 4357,2024C4320,1999 4318,1999 4239,2011C4119,2028 4017,2019 3948,1985C3917,1970 3879,1944 3863,1927L3835,1897L3890,1903C3962,1912 4066,1894 4111,1867C4159,1838 4224,1790 4334,1702C4442,1616 4630,1518 4740,1491C4840,1466 5056,1446 5139,1454C5313,1472 5527,1523 5621,1570C5688,1604 5768,1674 5801,1726L5821,1759L5853,1740C5871,1729 5902,1720 5923,1720C5962,1720 5973,1735 5941,1745C5908,1755 5888,1787 5885,1837C5884,1863 5881,1891 5879,1899C5877,1907 5910,1936 5960,1971C6066,2045 6113,2089 6151,2148C6201,2227 6184,2298 6114,2303C6085,2305 6085,2304 6089,2256C6092,2209 6091,2207 6035,2154C6001,2122 5945,2084 5894,2058L5810,2017L5758,2045C5729,2061 5702,2078 5697,2084C5690,2095 5693,2121 5706,2154C5716,2179 5686,2174 5651,2144C5628,2125 5620,2110 5620,2086C5620,2053 5619,2053 5565,2047C5492,2040 5434,2005 5368,1929C5284,1833 5233,1816 4990,1803C4810,1794 4697,1821 4560,1906C4529,1925 4472,1952 4434,1965L4365,1989L4405,2007C4455,2029 4609,2031 4848,2012C5026,1997 5080,2002 5265,2045C5400,2076 5463,2101 5544,2155C5591,2186 5624,2200 5646,2200C5683,2200 5743,2245 5757,2283C5763,2300 5766,2290 5770,2245L5775,2185L5793,2217C5812,2252 5816,2334 5800,2375C5788,2406 5732,2460 5711,2460C5699,2460 5699,2463 5708,2473C5716,2480 5748,2485 5788,2485C5840,2485 5864,2480 5894,2462C5941,2434 5965,2438 6005,2480C6030,2506 6032,2514 6024,2538C6010,2580 5951,2603 5860,2604C5793,2605 5779,2601 5727,2572C5695,2554 5665,2542 5660,2545C5643,2555 5649,2598 5675,2662C5689,2696 5700,2727 5700,2731C5700,2744 5674,2748 5654,2738ZM5534,2539C5565,2528 5600,2506 5615,2489C5661,2434 5639,2379 5585,2414C5552,2436 5551,2435 5563,2390C5578,2335 5561,2316 5526,2349C5497,2377 5485,2364 5495,2314C5502,2273 5478,2225 5454,2234C5446,2237 5440,2233 5440,2224C5440,2216 5433,2207 5425,2204C5407,2197 5380,2217 5380,2237C5380,2258 5349,2320 5339,2320C5334,2320 5332,2290 5333,2253C5336,2167 5316,2161 5281,2236C5267,2267 5248,2292 5232,2299C5195,2316 5194,2305 5230,2273C5258,2248 5261,2240 5258,2200C5255,2164 5253,2159 5246,2175C5235,2201 5189,2250 5177,2250C5171,2250 5174,2242 5183,2232C5217,2195 5196,2142 5161,2174C5137,2196 5131,2194 5120,2165C5112,2144 5104,2140 5069,2140C5043,2140 5023,2134 5016,2125C5010,2117 4977,2104 4942,2098C4883,2087 4878,2088 4849,2109L4819,2132L4793,2106C4763,2076 4736,2074 4637,2095C4585,2106 4556,2107 4514,2099C4483,2093 4452,2091 4444,2094C4436,2097 4430,2096 4430,2091C4430,2087 4418,2078 4403,2071L4375,2058L4398,2083C4439,2126 4509,2149 4637,2161C4702,2167 4774,2171 4798,2171C4822,2170 4860,2178 4886,2190C4912,2201 4942,2207 4955,2204C4970,2200 4979,2204 4983,2214C4987,2223 5001,2230 5017,2230C5037,2231 5051,2240 5065,2262C5103,2323 5182,2358 5255,2348C5271,2346 5274,2350 5272,2372C5269,2398 5271,2399 5295,2390C5332,2376 5332,2377 5325,2409C5320,2434 5324,2442 5353,2465C5399,2499 5444,2506 5507,2487C5555,2472 5570,2473 5570,2491C5570,2504 5478,2530 5432,2530C5375,2530 5304,2494 5232,2429C5138,2345 4944,2222 4867,2198C4830,2187 4796,2180 4793,2184C4789,2187 4793,2190 4801,2190C4828,2190 4974,2266 5035,2312C5068,2337 5133,2390 5180,2430C5327,2555 5417,2583 5534,2539ZM5639,2331C5595,2227 5449,2129 5274,2085C5144,2052 4941,2034 4825,2047C4746,2055 4738,2058 4761,2067C4775,2073 4794,2086 4803,2095C4818,2110 4822,2110 4842,2096C4880,2069 5002,2082 5026,2114C5032,2123 5052,2130 5073,2130C5120,2130 5140,2139 5140,2158C5140,2170 5143,2171 5152,2162C5171,2143 5198,2148 5211,2172L5223,2194L5231,2172C5244,2138 5270,2144 5270,2181L5270,2213L5291,2186C5308,2165 5315,2162 5331,2170C5345,2178 5350,2192 5351,2228L5352,2275L5363,2243C5381,2193 5403,2176 5429,2189C5440,2196 5450,2205 5450,2210C5450,2216 5459,2220 5470,2220C5496,2220 5513,2262 5508,2312C5505,2346 5506,2348 5522,2334C5550,2308 5575,2320 5578,2361C5581,2394 5583,2396 5611,2392C5636,2388 5642,2392 5648,2411C5655,2435 5655,2435 5658,2408C5660,2394 5651,2359 5639,2331ZM6150,2222C6150,2175 6073,2091 5946,2000C5847,1929 5830,1913 5835,1896C5839,1884 5846,1858 5851,1836C5856,1815 5865,1789 5871,1779C5888,1746 5863,1758 5831,1797C5814,1818 5797,1848 5794,1865C5789,1893 5785,1896 5760,1892C5745,1890 5729,1893 5726,1899C5717,1913 5665,1913 5639,1900C5609,1884 5616,1904 5654,1944C5687,1980 5691,1981 5786,1985C5848,1987 6044,2108 6091,2173C6107,2195 6120,2221 6120,2230C6120,2239 6123,2250 6126,2253C6138,2265 6150,2249 6150,2222ZM5644,2005C5661,1992 5662,1990 5646,1984C5622,1975 5580,1898 5580,1863C5580,1822 5589,1816 5611,1844C5621,1857 5642,1871 5656,1874C5691,1883 5743,1862 5736,1843C5732,1835 5730,1824 5730,1819C5730,1814 5721,1810 5710,1810C5693,1810 5690,1803 5690,1770L5690,1730L5635,1730C5587,1730 5580,1727 5580,1711C5580,1700 5571,1688 5558,1685C5547,1681 5527,1667 5515,1654C5493,1631 5491,1630 5456,1645C5427,1657 5419,1658 5415,1648C5413,1641 5406,1622 5400,1606L5389,1577L5352,1613C5302,1662 5284,1661 5260,1605C5239,1555 5212,1546 5178,1577C5161,1592 5158,1592 5132,1567C5099,1535 5070,1532 5070,1559C5070,1585 5060,1610 5049,1610C5044,1610 5034,1597 5025,1580C5006,1542 4999,1543 4977,1581C4962,1608 4956,1611 4932,1605C4848,1584 4842,1585 4823,1625C4804,1665 4814,1663 4703,1645C4661,1638 4660,1638 4660,1664C4660,1700 4637,1706 4590,1685C4535,1660 4517,1670 4522,1723L4525,1765L4459,1770C4385,1776 4376,1781 4314,1862C4259,1932 4237,1940 4080,1940C3991,1941 3969,1943 3984,1952C4013,1969 4166,1974 4250,1961C4362,1943 4450,1915 4605,1844C4682,1810 4768,1776 4795,1769C4877,1749 5080,1754 5189,1779C5319,1808 5358,1829 5413,1900C5467,1969 5494,1989 5558,2006C5618,2022 5621,2022 5644,2005ZM4238,1914C4250,1911 4282,1879 4310,1844C4371,1767 4407,1746 4466,1754L4509,1759L4512,1712C4515,1667 4516,1665 4548,1662C4567,1660 4592,1666 4605,1674C4637,1695 4638,1695 4642,1663C4645,1637 4648,1635 4690,1635C4715,1635 4749,1639 4765,1643C4792,1649 4796,1647 4810,1617C4824,1588 4829,1585 4870,1586C4895,1586 4923,1590 4932,1594C4946,1600 4954,1594 4971,1566C4997,1522 5017,1520 5034,1562L5048,1593L5055,1562C5060,1536 5067,1530 5088,1530C5102,1530 5124,1539 5136,1551C5157,1571 5160,1571 5182,1556C5224,1526 5261,1544 5275,1603C5286,1644 5295,1644 5340,1604C5386,1563 5407,1564 5417,1610C5421,1634 5427,1639 5439,1634C5448,1630 5470,1625 5488,1622C5513,1619 5520,1621 5520,1634C5520,1644 5535,1657 5555,1666C5579,1676 5590,1687 5590,1701C5590,1719 5595,1721 5643,1718L5695,1715L5698,1752C5700,1777 5707,1791 5719,1795C5730,1798 5743,1814 5750,1830C5765,1867 5776,1868 5783,1833C5795,1774 5699,1656 5600,1605C5481,1544 5231,1490 5070,1490C4791,1490 4544,1591 4216,1839C4178,1868 4124,1898 4087,1910L4025,1931L4120,1926C4172,1923 4225,1918 4238,1914Z" style="fill:current;fill-rule:nonzero;"/>
            <path d="M5562,1960C5541,1955 5505,1929 5462,1888C5425,1852 5381,1816 5364,1807C5310,1779 5195,1752 5077,1739C4978,1729 4950,1729 4865,1744C4808,1753 4730,1775 4681,1796C4559,1847 4401,1902 4389,1898C4383,1896 4420,1877 4471,1855C4521,1834 4595,1796 4634,1772C4749,1700 4787,1687 4835,1700C4872,1710 4880,1709 4934,1680C5000,1646 5043,1646 5092,1681C5126,1705 5130,1705 5190,1679L5239,1658L5277,1681C5298,1693 5325,1712 5338,1724C5356,1740 5372,1744 5424,1742C5499,1739 5512,1750 5529,1830C5536,1863 5553,1900 5571,1923C5588,1944 5600,1963 5599,1964C5597,1965 5580,1963 5562,1960ZM5546,1916C5533,1897 5520,1863 5516,1841C5513,1819 5505,1789 5498,1775C5487,1750 5484,1749 5425,1755C5370,1761 5361,1760 5334,1738C5318,1724 5290,1705 5272,1694C5244,1678 5236,1677 5207,1689C5152,1712 5111,1714 5090,1695C5079,1685 5051,1675 5026,1673C4991,1669 4974,1673 4941,1692L4899,1717L5027,1723C5164,1730 5294,1756 5363,1791C5386,1803 5437,1843 5476,1881C5554,1956 5583,1970 5546,1916Z" style="fill:current;fill-rule:nonzero;"/>
        </g>
        <g class="vegetables" id="Tomates" transform="matrix(1,0,0,1,-100,30)">
            <path d="M3380,1891C3320,1872 3292,1839 3325,1826C3347,1818 3370,1758 3370,1711C3370,1650 3363,1640 3320,1640C3287,1640 3282,1643 3277,1668C3264,1733 3180,1813 3111,1826L3077,1833L3104,1788C3134,1736 3136,1720 3114,1663C3094,1610 3071,1607 3013,1649C2971,1679 2960,1707 2960,1777C2960,1807 2958,1811 2946,1800C2905,1767 2876,1658 2893,1605C2898,1588 2888,1577 2829,1540C2739,1483 2650,1386 2606,1299C2553,1193 2535,1100 2535,929L2535,783L2577,698C2677,497 2916,351 3225,303C3383,279 3698,300 3807,341C3831,350 3837,347 3865,317C3968,199 4171,93 4354,61C4442,45 4526,48 4678,71C4926,108 5058,169 5201,310C5315,422 5353,498 5359,617C5362,687 5359,706 5338,752C5305,822 5228,891 5111,955C5017,1005 5004,1018 4964,1108C4963,1110 4927,1088 4884,1060C4769,985 4585,898 4430,846C4273,793 4255,790 4265,823C4269,835 4274,896 4277,959C4286,1150 4251,1247 4123,1380C4068,1439 4029,1469 3977,1495C3939,1514 3901,1530 3893,1530C3885,1530 3882,1535 3885,1540C3888,1546 3910,1550 3933,1550L3975,1551L3948,1574C3903,1614 3799,1616 3754,1579C3734,1562 3726,1574 3737,1606C3751,1648 3789,1670 3871,1684L3945,1697L3875,1719C3744,1761 3632,1746 3569,1679L3540,1648L3540,1696C3540,1749 3514,1814 3474,1867C3448,1901 3429,1906 3380,1891ZM3420,1869C3420,1863 3433,1846 3449,1831C3485,1797 3510,1717 3510,1636C3510,1553 3496,1508 3458,1471C3440,1454 3431,1440 3437,1440C3459,1440 3512,1494 3555,1559C3579,1595 3617,1643 3639,1665C3678,1702 3684,1704 3747,1707C3809,1709 3811,1708 3773,1700C3711,1687 3685,1665 3646,1597C3604,1522 3572,1491 3500,1454C3454,1431 3432,1426 3369,1426C3313,1426 3285,1431 3266,1444C3230,1467 3200,1518 3200,1556C3200,1573 3191,1622 3180,1665C3156,1761 3155,1757 3181,1734C3216,1703 3230,1664 3240,1578C3250,1488 3270,1455 3321,1446C3337,1442 3364,1437 3380,1434L3410,1428L3409,1477C3408,1506 3414,1538 3425,1559C3451,1611 3452,1764 3425,1808C3412,1829 3398,1840 3383,1840C3354,1840 3353,1858 3383,1870C3413,1882 3420,1882 3420,1869ZM3418,1789C3436,1755 3428,1596 3405,1552C3394,1530 3390,1506 3393,1484C3398,1453 3396,1450 3375,1450C3362,1450 3339,1461 3323,1474L3296,1498L3328,1525C3362,1553 3392,1605 3404,1651C3409,1676 3401,1738 3384,1799C3375,1830 3400,1823 3418,1789ZM3720,1648C3715,1635 3704,1599 3695,1568C3667,1464 3592,1409 3480,1411L3435,1411L3486,1431C3556,1458 3613,1510 3656,1586C3685,1638 3710,1667 3727,1670C3729,1670 3725,1660 3720,1648ZM3008,1500C3028,1495 3057,1490 3071,1490C3086,1490 3107,1479 3121,1464C3169,1411 3279,1383 3329,1410C3349,1420 3416,1404 3505,1368C3533,1357 3585,1342 3623,1334C3660,1327 3704,1313 3721,1305C3801,1263 3918,1102 3963,972C3988,899 3992,875 3987,817C3985,779 3978,744 3972,738C3965,731 3903,729 3796,732C3605,736 3620,750 3672,620C3688,579 3711,530 3722,512C3733,494 3741,478 3739,476C3737,475 3714,462 3689,447C3576,383 3442,348 3307,349C3220,349 3219,350 3100,410C2942,491 2885,551 2801,724C2715,900 2705,935 2705,1065C2705,1190 2717,1250 2767,1370C2808,1468 2839,1514 2883,1540C2913,1559 2914,1559 2942,1535C2958,1522 2987,1506 3008,1500ZM3964,1452C4142,1345 4214,1200 4212,945C4212,781 4210,777 4116,757C3989,729 3994,726 3998,821C4001,881 3996,918 3981,968C3944,1091 3813,1272 3731,1315C3713,1324 3666,1338 3628,1346C3589,1354 3548,1366 3536,1372C3517,1383 3518,1385 3555,1391C3577,1395 3599,1394 3605,1389C3621,1374 3713,1379 3750,1398C3769,1407 3801,1436 3820,1463C3843,1494 3860,1508 3870,1505C3878,1502 3920,1478 3964,1452ZM2754,1377C2710,1269 2690,1169 2690,1063C2690,948 2709,879 2784,725C2869,552 2939,474 3065,411C3112,388 3150,367 3148,365C3141,358 3057,381 2981,410C2710,516 2553,811 2614,1101C2635,1198 2681,1309 2734,1389C2760,1428 2783,1460 2784,1460C2786,1460 2772,1423 2754,1377ZM4964,983C4977,956 5007,917 5030,895C5116,813 5135,730 5102,589C5038,321 4891,172 4640,120C4535,98 4458,95 4382,110C4330,119 4095,207 4028,241C3933,290 3769,488 3712,625L3691,675L3743,677C3947,687 4209,728 4390,779C4533,819 4641,866 4795,955C4867,996 4928,1030 4932,1030C4936,1030 4951,1009 4964,983ZM5135,907C5348,801 5379,614 5219,409C5149,320 5053,234 4982,197C4892,150 4852,139 4905,175C5013,248 5121,388 5160,506C5178,560 5182,588 5178,659C5171,784 5144,845 5062,926C5024,964 5010,982 5030,967C5049,953 5097,926 5135,907Z" style="fill:current;fill-rule:nonzero;"/>
            <path d="M2937,1378C2886,1360 2888,1293 2941,1240C3014,1168 3191,1112 3376,1103C3501,1097 3548,1107 3580,1147C3604,1178 3606,1227 3584,1258C3570,1278 3561,1280 3472,1280C3306,1280 3218,1295 3122,1339C3026,1382 2979,1392 2937,1378ZM3095,1334C3207,1283 3274,1270 3426,1270C3568,1270 3575,1268 3586,1214C3600,1143 3512,1102 3371,1114C3152,1134 2981,1197 2928,1278C2906,1311 2905,1334 2926,1354C2951,1380 3009,1373 3095,1334Z" style="fill:current;fill-rule:nonzero;"/>
            <path d="M4813,853C4806,851 4800,843 4799,837C4798,815 4667,727 4595,699C4485,656 4437,647 4366,655C4315,660 4302,665 4307,676C4311,687 4307,690 4289,686C4276,683 4240,676 4211,670C4115,651 4060,590 4060,502C4060,399 4120,301 4214,252C4261,227 4274,225 4385,225C4494,225 4513,228 4597,257C4811,332 4952,423 5003,520C5028,568 5031,583 5027,633C5022,693 5001,737 4972,747C4904,769 4871,793 4860,826C4849,859 4839,864 4813,853ZM4800,783C4800,774 4810,756 4822,743C4838,725 4854,720 4890,720C4944,720 4965,703 4981,646C5015,522 4856,383 4580,295C4468,260 4336,251 4259,274C4166,301 4100,389 4100,487C4100,539 4128,597 4158,608C4229,633 4284,642 4390,643C4494,645 4513,648 4586,678C4630,696 4693,730 4726,755C4792,804 4800,808 4800,783Z" style="fill:current;fill-rule:nonzero;"/>
            <path d="M4400,550C4356,457 4373,400 4445,400C4486,400 4500,416 4500,462C4500,507 4466,580 4446,580C4438,580 4430,585 4428,591C4426,597 4413,579 4400,550Z" style="fill:current;fill-rule:nonzero;"/>
            <path d="M4565,589C4561,583 4556,553 4553,521C4548,470 4550,461 4572,435C4597,407 4599,406 4639,418C4662,425 4687,442 4696,455C4711,478 4711,482 4693,517C4682,539 4657,565 4634,577C4590,602 4574,605 4565,589Z" style="fill:current;fill-rule:nonzero;"/>
            <path d="M3956,669C3924,664 3861,659 3817,657C3772,655 3735,649 3733,643C3728,629 3814,514 3840,500C3881,478 3913,491 3939,540C3954,568 3982,598 4013,620C4091,673 4074,687 3956,669ZM4046,661C4042,656 4020,639 3995,624C3967,606 3945,581 3934,557C3900,482 3854,489 3788,580L3749,635L3832,642C3904,648 4039,665 4048,669C4050,669 4049,666 4046,661Z" style="fill:current;fill-rule:nonzero;"/>
        </g>
        <g class="vegetables" id="Aubergine" transform="matrix(0.876959,0,0,0.876959,-493.104,1820.15)">
            <path d="M8490,1834C8471,1826 8444,1808 8430,1796C8410,1777 8390,1771 8327,1767C8207,1759 8148,1726 8007,1591C7931,1518 7874,1472 7843,1459C7748,1418 7629,1424 7595,1473C7573,1505 7565,1485 7583,1440C7591,1418 7594,1400 7590,1400C7568,1400 7460,1446 7415,1475C7388,1492 7334,1537 7295,1574C7139,1724 6939,1801 6740,1787C6626,1778 6554,1758 6435,1700C6252,1611 6154,1479 6094,1241C5992,839 6227,398 6654,190C6920,60 7194,49 7610,151C7936,231 8226,363 8537,572C8577,598 8611,620 8614,620C8616,620 8632,596 8648,568C8690,494 8735,454 8810,425C8879,398 8950,383 8950,395C8950,399 8930,425 8905,453C8854,511 8800,607 8800,639C8800,668 8822,710 8852,737C8864,749 8923,781 8981,809C9163,895 9240,988 9240,1119C9239,1250 9163,1350 9065,1350L9030,1350L9063,1399C9101,1454 9170,1618 9170,1653C9170,1691 9132,1740 9087,1760C8972,1810 8899,1789 8877,1699C8873,1685 8861,1661 8849,1646L8827,1619L8811,1668C8789,1732 8769,1762 8725,1796C8656,1849 8560,1864 8490,1834ZM8690,1775C8724,1757 8765,1692 8778,1634L8787,1593L8741,1582C8716,1576 8685,1568 8674,1564C8656,1559 8650,1564 8640,1594C8624,1643 8550,1722 8500,1745L8458,1764L8491,1776C8540,1794 8655,1793 8690,1775ZM9077,1734C9104,1720 9117,1706 9124,1681C9136,1640 9122,1627 9043,1604C8996,1590 8988,1590 8961,1605C8905,1634 8894,1690 8936,1735C8958,1758 8967,1762 9000,1757C9022,1754 9056,1744 9077,1734ZM8468,1708C8501,1700 8528,1683 8561,1650C8617,1594 8631,1551 8602,1520L8583,1499L8570,1529C8554,1568 8479,1637 8445,1646C8347,1670 8196,1616 8073,1512C7990,1442 7933,1410 7890,1410C7872,1410 7861,1406 7865,1400C7874,1386 7931,1388 7977,1404C7998,1411 8047,1441 8085,1470C8210,1565 8332,1611 8416,1596C8484,1583 8597,1448 8568,1413C8562,1406 8551,1400 8542,1400C8534,1400 8503,1387 8475,1371C8440,1351 8419,1345 8409,1351C8377,1371 8281,1360 8178,1324C7965,1250 7958,1248 7895,1253C7828,1258 7770,1283 7722,1328C7676,1371 7681,1384 7748,1398C7838,1417 7918,1462 8011,1547C8174,1695 8318,1746 8468,1708ZM6933,1694C7062,1661 7193,1586 7340,1461C7387,1422 7448,1378 7475,1365L7525,1341L7460,1341C7380,1340 7336,1359 7251,1430C7183,1486 7183,1474 7250,1397C7313,1326 7368,1298 7454,1292C7507,1289 7539,1293 7582,1307L7639,1327L7667,1298C7682,1282 7719,1257 7750,1242C7798,1219 7816,1216 7895,1216C8005,1218 8061,1230 8165,1277C8228,1306 8261,1314 8322,1318L8399,1323L8338,1204C8240,1013 8155,942 8036,953L7975,958L8005,933C8097,856 8221,797 8316,785C8379,776 8478,794 8563,830C8600,845 8630,857 8630,857C8630,856 8623,833 8615,806C8607,779 8600,738 8600,714C8600,662 8595,658 8400,540C8096,356 7800,234 7529,184C7396,159 7108,154 6970,174C6747,207 6559,289 6450,400C6316,537 6164,796 6134,940C6093,1136 6169,1392 6313,1537C6389,1616 6526,1679 6670,1703C6733,1714 6877,1709 6933,1694ZM8932,1580C8970,1557 9019,1555 9072,1574C9108,1587 9108,1587 9100,1564C9056,1450 8958,1336 8876,1305C8834,1289 8829,1289 8806,1304C8792,1313 8770,1320 8758,1320C8743,1320 8728,1330 8717,1349C8708,1365 8684,1385 8665,1394C8637,1407 8630,1417 8630,1439C8630,1480 8683,1525 8752,1543C8783,1551 8826,1567 8847,1578C8896,1603 8894,1603 8932,1580ZM8633,1329C8705,1296 8691,1161 8609,1083C8590,1066 8541,1031 8500,1006C8405,947 8437,945 8551,1002C8687,1070 8750,1140 8750,1227L8751,1265L8776,1236C8799,1210 8802,1200 8797,1159C8785,1060 8692,927 8602,881C8541,850 8390,827 8295,834C8212,840 8130,871 8095,910C8077,930 8078,930 8111,930C8186,931 8268,992 8343,1104C8362,1132 8398,1187 8424,1227C8487,1325 8563,1361 8633,1329ZM9080,1278C9184,1225 9222,1095 9161,999C9130,949 9077,912 8911,821C8782,751 8765,730 8765,645C8765,601 8762,584 8755,591C8750,596 8745,630 8745,665C8745,719 8749,734 8775,772C8792,795 8844,843 8890,878C9070,1010 9090,1036 9090,1125C9090,1205 9059,1246 8982,1266C8937,1277 8936,1278 8960,1288C8999,1305 9032,1302 9080,1278ZM8978,1240C9046,1198 9071,1104 9032,1030C9021,1009 8968,960 8904,909C8702,751 8676,663 8790,521C8819,487 8840,456 8838,454C8833,449 8762,496 8726,529C8710,543 8684,575 8669,599C8645,636 8640,655 8640,706C8640,809 8664,862 8746,946C8834,1034 8865,1104 8856,1186C8850,1237 8850,1237 8883,1248C8930,1263 8942,1262 8978,1240Z" style="fill:current;fill-rule:nonzero;"/>
            <path d="M6534,1582C6470,1559 6388,1507 6355,1469C6323,1430 6292,1360 6274,1281C6254,1196 6263,1189 6337,1234C6428,1289 6474,1303 6575,1303C6689,1303 6723,1290 6864,1195C7001,1104 7129,1040 7267,994C7454,931 7615,936 7844,1012C7965,1052 8100,1113 8100,1129C8100,1153 7994,1156 7874,1134C7644,1094 7559,1097 7422,1150C7325,1187 7219,1257 7110,1355C6888,1555 6683,1636 6534,1582ZM6798,1548C6888,1511 6959,1466 7051,1385C7181,1272 7261,1212 7330,1176C7493,1092 7610,1075 7806,1109C7873,1121 7963,1130 8006,1130L8085,1129L8026,1098C7894,1031 7713,979 7565,966C7378,951 7113,1043 6873,1206C6744,1295 6704,1311 6605,1318C6508,1324 6416,1300 6337,1250C6311,1234 6287,1220 6285,1220C6264,1220 6309,1368 6348,1430C6378,1478 6462,1542 6526,1566C6587,1588 6720,1580 6798,1548Z" style="fill:current;fill-rule:nonzero;"/>
            <path d="M6550,1521C6514,1510 6460,1481 6460,1472C6460,1468 6463,1455 6466,1443C6471,1424 6475,1422 6493,1432C6528,1451 6613,1470 6660,1470C6690,1470 6724,1460 6762,1441C6808,1417 6818,1415 6810,1429C6799,1450 6748,1490 6703,1514C6670,1531 6594,1534 6550,1521Z" style="fill:current;fill-rule:nonzero;"/>
        </g>
        <g class="vegetables" id="Brocolis" transform="matrix(1,0,0,1,-140,20)">
            <path d="M1454,1730C1442,1725 1424,1710 1413,1696C1395,1674 1391,1672 1380,1685C1361,1708 1304,1704 1287,1679C1278,1666 1270,1663 1265,1669C1256,1685 1188,1682 1162,1664C1149,1655 1140,1638 1140,1622C1140,1603 1133,1592 1118,1585C1104,1579 1094,1564 1092,1548C1088,1517 1070,1509 1070,1539C1070,1567 1044,1583 1009,1578C986,1574 972,1579 954,1597C925,1626 872,1628 837,1600C821,1587 809,1584 805,1590C802,1595 788,1600 774,1600C761,1600 750,1605 750,1610C750,1616 741,1629 730,1640C691,1679 590,1659 590,1612C590,1604 581,1602 566,1606C528,1615 471,1586 464,1553C460,1537 445,1517 427,1505C382,1476 361,1436 378,1409C390,1391 388,1386 366,1365C342,1343 339,1310 361,1310C366,1310 365,1299 359,1286C347,1261 361,1220 380,1220C386,1220 390,1211 390,1201C390,1187 404,1177 438,1165C478,1150 486,1144 485,1122C485,1107 477,1088 468,1078C458,1068 450,1051 450,1040C450,1029 441,1011 430,1000C403,973 403,920 429,913C440,910 446,902 444,895C441,888 451,869 465,852C479,835 495,808 501,790C514,754 562,726 596,734C609,738 620,736 620,731C620,726 632,719 647,716C661,712 686,695 702,678C725,653 736,649 764,652L798,656L777,618C765,597 729,545 698,502C649,437 640,418 640,383C640,353 647,333 666,311C700,270 827,201 883,194L929,187L1044,298C1157,406 1246,477 1257,467C1260,464 1255,451 1246,438C1224,407 1226,364 1251,339C1270,320 1271,313 1262,284C1254,256 1255,246 1271,226C1281,213 1290,193 1290,183C1290,157 1318,120 1337,120C1346,120 1358,113 1365,103C1372,94 1387,86 1398,85C1410,84 1428,75 1440,65C1455,51 1465,49 1483,57C1498,63 1512,63 1529,54C1547,45 1560,44 1579,52C1593,58 1619,62 1636,61C1653,60 1673,66 1680,75C1697,95 1749,120 1774,120C1786,120 1804,113 1814,105C1846,81 1907,86 1935,115C1949,128 1960,145 1960,152C1960,160 1973,165 1992,166C2033,168 2084,221 2077,256C2073,277 2076,280 2106,280C2141,280 2180,308 2180,334C2180,342 2191,351 2205,354C2237,362 2264,403 2257,435C2254,454 2258,464 2274,472C2285,478 2298,488 2302,494C2314,511 2311,560 2299,560C2291,560 2291,565 2300,575C2307,583 2310,602 2307,617C2304,632 2308,654 2317,667C2326,681 2330,700 2326,715C2321,733 2325,749 2340,767C2378,816 2358,900 2308,900C2283,900 2279,940 2301,968C2338,1015 2316,1085 2255,1114C2227,1128 2220,1137 2220,1160C2220,1207 2174,1251 2124,1253C2086,1255 2083,1257 2083,1284C2083,1301 2075,1320 2063,1329C2052,1338 2040,1358 2036,1373C2033,1388 2022,1404 2013,1407C2004,1411 1988,1422 1978,1432C1964,1446 1951,1450 1929,1445C1904,1439 1900,1441 1900,1459C1900,1470 1895,1482 1890,1485C1883,1489 1884,1498 1891,1511C1896,1522 1898,1540 1895,1551C1888,1573 1845,1594 1823,1586C1807,1580 1807,1582 1821,1613C1843,1661 1788,1710 1737,1691C1718,1684 1709,1686 1697,1701C1670,1731 1631,1736 1589,1713C1553,1694 1551,1693 1533,1710C1509,1733 1480,1741 1454,1730ZM1526,1675L1551,1650L1577,1670C1615,1699 1655,1696 1681,1661C1701,1633 1703,1633 1729,1648C1744,1656 1764,1661 1773,1657C1792,1650 1796,1609 1780,1579C1770,1562 1773,1560 1809,1560C1857,1560 1885,1537 1870,1510C1864,1500 1855,1488 1850,1485C1844,1481 1850,1470 1865,1458C1879,1448 1890,1432 1890,1424C1890,1414 1897,1411 1915,1416C1945,1424 1970,1406 1970,1376C1971,1356 1972,1356 1984,1373C2002,1397 2010,1394 2010,1365C2010,1351 2006,1340 2000,1340C1995,1340 1990,1336 1990,1330C1990,1325 2000,1320 2013,1320C2059,1320 2067,1302 2046,1249C2040,1235 2048,1232 2090,1228C2157,1221 2183,1198 2178,1148C2175,1115 2178,1110 2200,1105C2265,1089 2291,1019 2250,967C2233,945 2232,941 2245,930C2265,914 2264,891 2244,883C2229,878 2229,876 2244,868C2262,858 2266,830 2250,830C2245,830 2240,826 2240,820C2240,806 2253,808 2276,824C2292,836 2293,842 2283,858C2265,887 2280,893 2307,868C2338,839 2336,807 2300,776C2273,754 2271,749 2282,725C2292,703 2290,696 2266,672L2240,643L2280,607L2259,584L2238,562L2259,551C2290,534 2285,513 2247,501C2216,490 2213,487 2214,448C2215,409 2213,405 2183,397C2158,389 2150,381 2150,364C2150,326 2123,308 2079,315L2040,322L2040,277C2040,240 2035,228 2014,211C1999,199 1979,190 1968,190C1958,190 1947,183 1943,175C1929,137 1843,117 1820,145C1813,153 1797,160 1785,160C1772,160 1752,169 1739,179C1719,195 1717,202 1725,226C1731,242 1749,262 1765,270C1793,283 1793,285 1773,288C1761,290 1742,286 1731,280C1713,271 1710,273 1704,296C1699,314 1704,330 1719,351C1731,367 1738,385 1735,390C1717,419 1770,467 1805,454C1817,449 1819,454 1814,479C1807,514 1822,540 1850,540C1867,540 1867,542 1853,570C1832,613 1847,656 1884,653C1915,651 1914,650 1895,686C1876,723 1876,744 1895,781C1910,809 1910,811 1885,822C1856,835 1853,861 1876,885C1885,894 1891,902 1889,903C1887,904 1876,910 1865,916C1837,931 1834,965 1859,986C1878,1003 1879,1020 1860,1020C1855,1020 1844,1012 1834,1003C1822,990 1796,985 1736,983C1546,976 1368,890 1344,795C1341,781 1343,756 1350,740C1388,648 1523,724 1570,864C1590,925 1594,930 1626,936C1645,939 1663,940 1666,938C1668,935 1661,913 1650,889C1616,813 1627,780 1687,780C1725,780 1776,821 1805,874C1824,910 1848,925 1836,894C1833,885 1830,866 1830,852C1830,830 1821,820 1783,800C1696,754 1676,673 1744,645C1762,637 1786,633 1797,636C1814,641 1817,638 1813,618L1809,595L1642,595C1447,595 1398,584 1258,514C1154,462 1062,400 1011,346C992,326 973,310 969,310C965,310 958,322 952,338C938,380 895,426 847,449C824,461 812,470 820,470C836,470 894,598 929,714C951,784 959,960 941,960C929,960 920,923 920,870C919,766 883,666 804,552C760,490 760,489 783,479C804,470 804,470 780,475C766,477 749,480 743,480C736,480 746,500 765,525C809,584 867,700 885,770C906,847 904,946 880,1021C870,1056 863,1086 865,1088C870,1093 888,1085 912,1068C939,1048 978,1073 1001,1125C1012,1149 1024,1172 1029,1175C1043,1183 1024,1119 996,1066C962,1002 959,913 990,885C1008,868 1011,868 1036,885C1081,914 1113,1002 1118,1107C1120,1158 1118,1212 1112,1229C1100,1263 1104,1270 1129,1263C1144,1259 1149,1246 1152,1193C1156,1136 1160,1124 1184,1103C1207,1084 1218,1081 1248,1086L1285,1093L1241,1059C1148,988 1112,918 1149,881C1197,833 1263,873 1316,983C1354,1063 1376,1090 1401,1090C1418,1090 1418,1087 1404,1055C1367,965 1443,920 1547,971C1595,994 1635,1037 1660,1092C1669,1113 1680,1127 1683,1123C1691,1116 1682,1075 1664,1041C1647,1008 1655,997 1691,1005C1708,1009 1727,1007 1734,1001C1745,992 1749,995 1752,1015C1756,1034 1753,1040 1739,1040C1729,1040 1716,1049 1710,1059C1697,1085 1697,1086 1717,1105C1733,1121 1733,1123 1717,1132C1708,1137 1700,1147 1700,1154C1700,1162 1686,1170 1670,1174C1632,1181 1622,1205 1642,1241C1656,1265 1656,1269 1642,1284C1617,1309 1637,1355 1673,1355C1708,1354 1708,1378 1673,1386C1653,1392 1642,1388 1628,1370C1608,1345 1604,1300 1622,1282C1631,1273 1630,1266 1617,1252C1593,1226 1596,1205 1625,1182C1656,1157 1657,1134 1625,1088C1601,1053 1523,989 1486,976C1455,965 1430,979 1430,1007C1430,1043 1475,1117 1508,1134C1531,1147 1532,1149 1515,1150C1490,1150 1470,1168 1470,1191C1470,1201 1459,1210 1440,1214C1407,1220 1386,1257 1397,1286C1401,1298 1399,1301 1389,1298C1380,1295 1375,1278 1375,1247C1375,1213 1369,1195 1350,1175C1318,1141 1281,1115 1253,1106C1180,1083 1156,1272 1224,1330C1256,1356 1228,1410 1183,1410C1164,1410 1160,1415 1160,1439C1160,1455 1149,1481 1136,1497C1108,1530 1115,1562 1151,1570C1166,1574 1174,1582 1172,1593C1164,1642 1220,1668 1266,1635C1285,1622 1288,1623 1298,1645C1312,1676 1346,1678 1376,1649L1399,1627L1433,1664C1474,1707 1492,1709 1526,1675ZM711,1630C736,1616 735,1598 710,1582C695,1573 690,1559 690,1527L690,1485L710,1517C742,1571 800,1588 820,1550C835,1522 844,1525 857,1560C866,1585 874,1590 900,1590C924,1590 935,1583 947,1561C962,1536 967,1534 986,1542C1018,1557 1040,1545 1040,1515C1040,1493 1044,1490 1073,1490C1116,1490 1130,1475 1130,1429C1130,1394 1132,1391 1163,1388C1198,1385 1208,1362 1195,1313C1190,1290 1185,1288 1149,1293C1128,1296 1107,1294 1104,1289C1094,1272 1059,1280 1051,1302L1043,1324L1031,1303C1024,1289 1023,1279 1030,1275C1035,1272 1040,1257 1040,1243C1040,1225 1036,1219 1025,1224C1014,1228 1010,1223 1010,1205C1010,1185 1005,1180 985,1180C969,1180 962,1176 966,1167C973,1148 944,1127 921,1133C909,1136 899,1132 896,1124C889,1105 844,1106 836,1125C833,1133 824,1137 816,1134C804,1130 807,1116 833,1063C858,1009 863,984 863,926C863,851 846,763 823,718C797,666 708,671 702,724C699,745 695,750 680,745C666,741 657,746 647,766C638,783 630,789 626,781C603,745 504,793 513,836C516,854 513,860 500,860C477,860 467,886 480,910C488,925 486,929 467,932C434,937 430,986 462,1001C482,1009 485,1017 482,1041C480,1057 482,1070 486,1070C491,1070 505,1073 517,1076C535,1081 539,1077 542,1054C544,1035 556,1018 580,1002C620,975 647,977 667,1007C681,1028 680,1028 640,1023C593,1016 580,1027 580,1073C580,1094 575,1100 558,1100C518,1100 505,1115 518,1144C528,1167 527,1170 512,1170C486,1170 450,1198 450,1219C450,1228 463,1249 480,1265C503,1287 507,1297 500,1311C486,1336 488,1384 502,1398C509,1405 524,1410 536,1410C553,1410 556,1415 552,1435C543,1486 594,1513 654,1490C684,1479 687,1486 663,1512C626,1553 520,1511 520,1455C520,1439 513,1430 495,1426C482,1423 463,1406 455,1389C440,1362 440,1356 455,1328C470,1297 469,1295 443,1266C427,1249 414,1233 412,1231C411,1228 402,1234 393,1243C379,1256 378,1264 388,1285C397,1305 397,1315 387,1331C377,1348 378,1354 397,1369C415,1384 418,1394 413,1424C406,1468 422,1490 461,1490C485,1490 490,1494 490,1515C490,1554 526,1583 566,1577C585,1574 600,1575 600,1579C600,1584 609,1599 621,1614C643,1642 677,1648 711,1630ZM1781,564C1818,558 1818,558 1798,538C1786,526 1780,510 1783,499C1786,488 1783,480 1775,480C1768,480 1752,471 1739,461L1715,442L1675,484C1653,507 1622,536 1605,548L1575,569L1660,570C1707,570 1761,567 1781,564ZM1476,499C1553,475 1623,442 1660,412C1681,395 1685,383 1686,333C1689,228 1696,170 1708,158C1725,141 1723,128 1703,132C1693,134 1681,127 1675,115C1668,102 1654,95 1635,95C1618,95 1596,89 1584,83C1555,66 1520,77 1520,104C1520,118 1509,130 1487,140C1455,155 1449,175 1464,211C1472,228 1448,240 1400,243C1381,245 1374,251 1372,272C1369,296 1366,298 1335,293C1296,287 1278,309 1300,335C1310,347 1309,350 1292,350C1246,350 1237,422 1282,433C1300,438 1301,441 1291,454C1275,473 1283,500 1305,500C1313,500 1320,505 1320,510C1320,527 1405,521 1476,499ZM847,420C882,395 930,314 930,281C930,258 903,240 868,240C835,240 741,290 703,328C638,393 673,454 771,447C798,445 829,434 847,420ZM1356,245C1367,233 1392,220 1411,216C1444,210 1446,208 1442,175C1437,136 1453,110 1481,110C1492,110 1500,106 1500,101C1500,85 1467,79 1451,93C1442,100 1423,111 1408,118C1392,124 1380,137 1380,145C1380,156 1373,159 1358,155C1327,148 1310,161 1300,201C1295,220 1288,245 1284,258C1278,279 1280,280 1306,274C1322,270 1344,257 1356,245Z" style="fill:current;fill-rule:nonzero;"/>
            <path d="M1445,609C1292,593 1179,542 1047,427C990,378 963,343 974,333C977,330 1012,358 1052,395C1147,483 1195,515 1276,546C1379,584 1464,601 1595,610L1715,617L1620,617C1568,617 1489,614 1445,609Z" style="fill:current;fill-rule:nonzero;"/>
        </g>
    </g>
</svg>
